Gidole-Regular.sfdir
StartChar: exclam
Encoding: 33 33 82
Width: 212
VWidth: 0
Flags: W
HStem: -6 102<63.2266 148.773> 647 20G<68 142>
VStem: 55 102<2.22656 87.7734> 68 74<252.9 667> 78 54<180 350.1>
LayerCount: 4
Back
Fore
SplineSet
106 96 m 0xe0
 136 96 157 75 157 45 c 0
 157 15 136 -6 106 -6 c 0
 76 -6 55 15 55 45 c 0
 55 75 76 96 106 96 c 0xe0
78 180 m 1xc8
 68 423 l 1
 68 667 l 1
 142 667 l 1
 142 423 l 1xd0
 132 180 l 1
 78 180 l 1xc8
EndSplineSet
Validated: 1
Layer: 2
Layer: 3
EndChar
StartChar: quotedbl
Encoding: 346 34 90
Width: 324
Flags: W
HStem: 456 211<62 123 202 263>
VStem: 62 61<456 667> 202 61<456 667>
LayerCount: 4
Back
Fore
SplineSet
196 667 m 1
 268 667 l 1
 263 456 l 1
 202 456 l 1
 196 667 l 1
56 667 m 1
 128 667 l 1
 123 456 l 1
 62 456 l 1
 56 667 l 1
EndSplineSet
Validated: 1
Layer: 2
Layer: 3
EndChar
StartChar: numbersign
Encoding: 35 35 99
Width: 600
VWidth: 0
Flags: W
HStem: 0 21G<91 159.211 305 373.211> 190 57<50 131 207 345 421 515> 420 57<85 179 255 393 469 550> 647 20G<226.789 295 440.789 509>
LayerCount: 4
Back
SplineSet
50 247 m 5
 515 247 l 5
 515 190 l 5
 50 190 l 5
 50 247 l 5
85 477 m 5
 550 477 l 5
 550 420 l 5
 85 420 l 5
 85 477 l 5
445 667 m 5
 509 667 l 5
 369 0 l 5
 305 0 l 5
 445 667 l 5
231 667 m 5
 295 667 l 5
 155 0 l 5
 91 0 l 5
 231 667 l 5
EndSplineSet
Fore
SplineSet
231 667 m 1
 295 667 l 1
 255 477 l 1
 405 477 l 1
 445 667 l 1
 509 667 l 1
 469 477 l 1
 550 477 l 1
 550 420 l 1
 457 420 l 1
 421 247 l 1
 515 247 l 1
 515 190 l 1
 409 190 l 1
 369 0 l 1
 305 0 l 1
 345 190 l 1
 195 190 l 1
 155 0 l 1
 91 0 l 1
 131 190 l 1
 50 190 l 1
 50 247 l 1
 143 247 l 1
 179 420 l 1
 85 420 l 1
 85 477 l 1
 191 477 l 1
 231 667 l 1
393 420 m 1
 243 420 l 1
 207 247 l 1
 357 247 l 1
 393 420 l 1
EndSplineSet
Validated: 1
Layer: 2
Layer: 3
EndChar
StartChar: dollar
Encoding: 36 36 97
Width: 521
VWidth: 0
Flags: HWO
HStem: -5 67<154.213 229 283 335.903> 604 67<174.392 229 283 354.938>
VStem: 55 71<428.393 556.56> 229 54<-71 -3.38356 63 304 383 604 669.805 738> 395 71<118.423 252.458>
LayerCount: 4
Back
SplineSet
256 673 m 4
 316 673 401 658 449 591 c 5
 393 550 l 5
 358 596 302 606 256 606 c 4
 183 606 126 561 126 490 c 4
 126 414 191.23828125 388.482421875 263 375 c 4
 374.873478677 353.981475605 466 311 466 186 c 4
 466 87 380 -6 256 -6 c 4
 186 -6 104 11 52 86 c 5
 107 126 l 5
 145.735351562 70.802734375 200 61 256 61 c 4
 341 61 395 121 395 186 c 4
 395 269 322.900390625 298.294921875 249 311 c 4
 143.639007182 329.113837204 55 371 55 490 c 4
 55 603 152 673 256 673 c 4
229 738 m 5
 283 738 l 5
 283 -71 l 5
 229 -71 l 5
 229 738 l 5
EndSplineSet
Fore
SplineSet
229 738 m 1
 283 738 l 1
 283 672 l 1
 339 668 408 648 449 591 c 1
 395 550 l 1
 367 587 322 600 283 604 c 1
 283 371 l 1
 386 348 466 303 466 186 c 0
 466 94 392 7 283 -5 c 1
 283 -71 l 1
 229 -71 l 1
 229 -5 l 1
 166 -1 97 20 52 86 c 1
 107 126 l 1
 139 80 183 65 229 62 c 1
 229 315 l 1
 133 335 55 379 55 490 c 0
 55 593 136 660 229 671 c 1
 229 738 l 1
283 304 m 1
 283 63 l 1
 352 74 395 128 395 186 c 0
 395 256 344 288 283 304 c 1
229 383 m 1
 229 604 l 1
 169 594 126 552 126 490 c 0
 126 426 172 398 229 383 c 1
EndSplineSet
Layer: 2
Layer: 3
EndChar
StartChar: ampersand
Encoding: 360 38 104
Width: 597
Flags: W
HStem: -6 66<181.757 331.236> 0 70<467.142 542> 310 66<182.975 384 450 542> 607 66<184.891 332.506>
VStem: 55 70<116.583 255.666> 64 70<424.743 556.301> 384 66<106.831 310 376 471>
LayerCount: 4
Back
Fore
SplineSet
384 130 m 1xba
 384 310 l 1
 250 310 l 2
 175 310 125 249 125 186 c 0
 125 122 176 60 250 60 c 0
 279 60 333 64 384 130 c 1xba
250 376 m 2
 384 376 l 1
 384 471 l 1
 450 471 l 1
 450 376 l 1
 542 376 l 1
 542 310 l 1
 450 310 l 1
 450 138 l 2
 450 81 497 70 532 70 c 2
 542 70 l 1
 542 0 l 1
 532 0 l 2x76
 497 0 441 1 408 55 c 1
 366 2 290 -6 250 -6 c 0
 131 -6 55 85 55 186 c 0xba
 55 254 91 317 141 344 c 1
 97 370 64 427 64 490 c 0
 64 586 137 673 250 673 c 0
 293 673 366 672 434 584 c 1
 380 543 l 1
 333 604 278 607 250 607 c 0
 182 607 134 549 134 490 c 0xb6
 134 432 181 376 250 376 c 2
EndSplineSet
Validated: 1
Layer: 2
Layer: 3
EndChar
StartChar: quotesingle
Encoding: 351 39 95
Width: 184
Flags: W
HStem: 456 211<62 123>
VStem: 62 61<456 667>
LayerCount: 4
Back
Fore
SplineSet
56 667 m 1
 128 667 l 1
 123 456 l 1
 62 456 l 1
 56 667 l 1
EndSplineSet
Validated: 1
Layer: 2
Layer: 3
EndChar
StartChar: parenleft
Encoding: 336 40 80
Width: 305
Flags: W
HStem: -130 58<208.319 275> 739 58<203.609 275>
VStem: 80 62<-3.23664 674.69>
LayerCount: 4
Back
Fore
SplineSet
275 -130 m 1
 179 -130 80 -64 80 80 c 2
 80 586 l 2
 80 730 178 797 275 797 c 1
 275 739 l 1
 205 739 142 688 142 586 c 2
 142 80 l 2
 142 -21 215 -72 275 -72 c 1
 275 -130 l 1
EndSplineSet
Validated: 1
Layer: 2
Layer: 3
EndChar
StartChar: parenright
Encoding: 334 41 78
Width: 305
Flags: W
HStem: -130 58<30 100.646> 739 58<30 97.0933>
VStem: 163 62<-3.0278 669.551>
LayerCount: 4
Back
Fore
SplineSet
30 -130 m 1
 30 -72 l 1
 95 -72 163 -21 163 80 c 2
 163 586 l 2
 163 687 95 739 30 739 c 1
 30 797 l 1
 127 797 225 730 225 586 c 2
 225 80 l 2
 225 -63 126 -130 30 -130 c 1
EndSplineSet
Validated: 1
Layer: 2
Layer: 3
EndChar
StartChar: asterisk
Encoding: 352 42 96
Width: 367
VWidth: 0
Flags: W
HStem: 429 238
VStem: 161 46<576 667>
LayerCount: 4
Back
Fore
SplineSet
158 667 m 1
 210 667 l 1
 207 576 l 1
 294 607 l 1
 310 557 l 1
 222 532 l 1
 278 460 l 1
 236 429 l 1
 184 504 l 1
 132 429 l 1
 91 459 l 1
 146 532 l 1
 58 558 l 1
 74 608 l 1
 161 576 l 1
 158 667 l 1
EndSplineSet
Validated: 1
Layer: 2
Layer: 3
EndChar
StartChar: comma
Encoding: 295 44 39
Width: 214
Flags: W
HStem: -121 217<88.4844 104>
VStem: 56 102<2.13565 87.877>
AnchorPoint: "Bottom" 107 159 mark 0
LayerCount: 4
Back
SplineSet
107 96 m 4
 132 96 158 80 158 45 c 4
 158 39 157 22 149 -1 c 6
 104 -121 l 5
 59 -121 l 5
 92 13 l 5
 97 14 103 -3 107 -6 c 5
 82 -6 56 10 56 45 c 4
 56 80 82 96 107 96 c 4
EndSplineSet
Fore
SplineSet
107 96 m 0
 132 96 158 80 158 45 c 0
 158 39 157 23 149 0 c 2
 104 -121 l 1
 59 -121 l 1
 88 -3 l 1
 70 3 56 19 56 45 c 0
 56 80 82 96 107 96 c 0
EndSplineSet
Validated: 1
Layer: 2
Layer: 3
EndChar
StartChar: hyphen
Encoding: 45 45 81
Width: 410
Flags: W
HStem: 218 66<100 310>
VStem: 100 210<218 284>
LayerCount: 4
Back
Fore
SplineSet
100 284 m 1
 310 284 l 1
 310 218 l 1
 100 218 l 1
 100 284 l 1
EndSplineSet
Validated: 1
Layer: 2
Layer: 3
EndChar
StartChar: period
Encoding: 257 46 1
Width: 212
VWidth: 0
Flags: W
HStem: -6 102<63.2266 148.773>
VStem: 55 102<2.22656 87.7734>
AnchorPoint: "Bottom" 107 159 mark 0
LayerCount: 4
Back
Fore
SplineSet
106 96 m 0
 136 96 157 75 157 45 c 0
 157 15 136 -6 106 -6 c 0
 76 -6 55 15 55 45 c 0
 55 75 76 96 106 96 c 0
EndSplineSet
Validated: 1
Layer: 2
Layer: 3
EndChar
StartChar: slash
Encoding: 47 47 73
Width: 303
VWidth: 0
Flags: W
VStem: 0 302
LayerCount: 4
Back
Fore
SplineSet
240 797 m 1
 302 797 l 1
 62 -130 l 1
 0 -130 l 1
 240 797 l 1
EndSplineSet
Validated: 1
Layer: 2
Layer: 3
EndChar
StartChar: zero
Encoding: 258 48 2
Width: 520
Flags: W
HStem: -6 70<193.122 327.084> 603 70<192.916 327.084>
VStem: 65 74<120.572 545.551> 381 74<120.972 545.551>
LayerCount: 4
Back
Fore
SplineSet
260 673 m 0
 357 673 455 606 455 462 c 2
 455 204 l 2
 455 61 357 -6 260 -6 c 0
 164 -6 65 60 65 204 c 2
 65 462 l 2
 65 606 163 673 260 673 c 0
260 603 m 0
 200 603 139 559 139 462 c 2
 139 204 l 2
 139 108 200 64 260 64 c 0
 320 64 381 108 381 204 c 2
 381 462 l 2
 381 559 320 603 260 603 c 0
EndSplineSet
Validated: 1
Layer: 2
Layer: 3
EndChar
StartChar: one
Encoding: 49 49 3
Width: 311
Flags: HW
HStem: 0 21G<152 226> 647 20G<122.339 226>
VStem: 152 74<0 582>
LayerCount: 4
Back
Fore
SplineSet
162 667 m 5
 226 667 l 5
 226 0 l 5
 152 0 l 5
 152 582 l 5
 78 543 l 5
 45 608 l 5
 162 667 l 5
EndSplineSet
Layer: 2
Layer: 3
EndChar
StartChar: two
Encoding: 50 50 4
Width: 525
Flags: HW
HStem: 0 70<169 460> 603 70<176.923 325.57>
VStem: 372 74<418.31 556.668>
LayerCount: 4
Back
SplineSet
260 673 m 4
 373.161132812 672.999023438 445.8359375 586.041992188 445.8359375 490.5 c 4
 445.8359375 458.0859375 435.603515625 403.052734375 386.439453125 339.098632812 c 6
 173.802734375 70 l 5
 460 70 l 5
 460 0 l 5
 65 0 l 5
 65 50 l 5
 327.80859375 384.25 l 6
 361.455078125 427.793945312 371.8359375 460.84765625 371.8359375 490.5 c 4
 371.8359375 549.396484375 328.100585938 602.999023438 260 603 c 4
 232.247070312 603 181.1328125 602.9609375 132.853515625 540.3203125 c 5
 75.8095703125 584.25 l 5
 143.627929688 672.500976562 227.1953125 673 260 673 c 4
EndSplineSet
Fore
SplineSet
260 673 m 4
 373 673 446 586 446 490 c 4
 446 458 439 412 381 339 c 6
 169 70 l 5
 460 70 l 5
 460 0 l 5
 65 0 l 5
 65 50 l 5
 328 384 l 6
 361 428 372 461 372 490 c 4
 372 549 328 603 260 603 c 4
 232 603 181 603 133 540 c 5
 76 584 l 5
 144 673 227 673 260 673 c 4
EndSplineSet
Layer: 2
Layer: 3
EndChar
StartChar: three
Encoding: 51 51 5
Width: 496
Flags: HW
HStem: -6 70<156.883 309.861> 308 70<173 306.729> 603 70<157.923 305.476>
VStem: 353 74<423.512 556.456> 362 74<116.066 256.328>
LayerCount: 4
Back
SplineSet
241 673 m 4
 354 673 427 586 427 490 c 4
 427 453 416 417 395 387 c 4
 383 369 368 355 350 344 c 5
 367 334 383 322 395 306 c 4
 421 272 436 230 436 186 c 4
 436 85 360 -6 241 -6 c 4
 206 -6 122 -6 50 88 c 5
 107 132 l 5
 159 64 212 64 241 64 c 4
 315 64 362 122 362 186 c 4
 362 247 319 303 251 308 c 4
 248 308 244 308 241 308 c 6
 173 308 l 5
 173 378 l 5
 241 378 l 6
 245 378 249 378 253 379 c 4
 314 384 353 435 353 490 c 4
 353 549 309 603 241 603 c 4
 213 603 162 603 114 540 c 5
 57 584 l 5
 125 673 208 673 241 673 c 4
EndSplineSet
Fore
SplineSet
241 673 m 4xf0
 354 673 427 586 427 490 c 4xf0
 427 427 393 371 350 344 c 5
 399 315 436 254 436 186 c 4
 436 85 360 -6 241 -6 c 4
 206 -6 122 -6 50 88 c 5
 107 132 l 5
 159 64 212 64 241 64 c 4
 315 64 362 122 362 186 c 4xe8
 362 238 326 308 241 308 c 6
 173 308 l 5
 173 378 l 5
 241 378 l 6
 307 378 353 430 353 490 c 4
 353 548 309 603 241 603 c 4
 213 603 162 603 114 540 c 5
 57 584 l 5
 125 673 208 673 241 673 c 4xf0
EndSplineSet
Layer: 2
Layer: 3
EndChar
StartChar: four
Encoding: 52 52 6
Width: 540
Flags: HW
HStem: 0 21G<353 423> 165 68<147 353 423 480> 647 20G<257.106 340>
VStem: 353 70<0 165 233 403>
LayerCount: 4
Back
Fore
SplineSet
266 667 m 5
 340 667 l 5
 147 233 l 5
 353 233 l 5
 353 403 l 5
 423 403 l 5
 423 233 l 5
 480 233 l 5
 480 165 l 5
 423 165 l 5
 423 0 l 5
 353 0 l 5
 353 165 l 5
 65 165 l 5
 65 215 l 5
 266 667 l 5
EndSplineSet
Layer: 2
Layer: 3
EndChar
StartChar: five
Encoding: 53 53 7
Width: 506
Flags: HW
HStem: -6 70<161.883 313.084> 345 70<177.632 313.084> 597 70<154 411>
VStem: 82 72<388 597> 367 74<120.624 288.006>
LayerCount: 4
Back
Fore
SplineSet
82 667 m 1
 411 667 l 1
 411 597 l 1
 154 597 l 1
 154 388 l 1
 183 405 214 415 246 415 c 0
 343 415 441 348 441 204 c 0
 441 61 343 -6 246 -6 c 0
 211 -6 127 -6 55 88 c 1
 112 132 l 1
 164 64 217 64 246 64 c 0
 306 64 367 108 367 204 c 0
 367 301 306 345 246 345 c 0
 213 345 179 331 156 303 c 1
 82 328 l 1
 82 667 l 1
EndSplineSet
Layer: 2
Layer: 3
EndChar
StartChar: six
Encoding: 264 54 8
Width: 500
Flags: W
HStem: -6 70<182.916 317.084> 345 70<199.635 317.084> 647 20G<233.642 320>
VStem: 55 74<120.624 288.488> 371 74<120.624 288.006>
LayerCount: 4
Back
Fore
SplineSet
250 64 m 0
 310 64 371 108 371 204 c 0
 371 301 310 345 250 345 c 0
 190 345 129 301 129 204 c 0
 129 108 190 64 250 64 c 0
243 667 m 1
 320 667 l 1
 198 406 l 1
 214 411 233 415 250 415 c 0
 347 415 445 348 445 204 c 0
 445 61 347 -6 250 -6 c 0
 153 -6 55 61 55 204 c 0
 55 214 55 265 90 340 c 2
 243 667 l 1
EndSplineSet
Validated: 1
Layer: 2
Layer: 3
EndChar
StartChar: seven
Encoding: 55 55 9
Width: 520
Flags: HW
HStem: 0 21G<114 201.493> 597 70<65 367>
LayerCount: 4
Back
Fore
SplineSet
65 667 m 1
 455 667 l 1
 455 617 l 1
 193 0 l 1
 114 0 l 1
 367 597 l 1
 65 597 l 1
 65 667 l 1
EndSplineSet
Layer: 2
Layer: 3
EndChar
StartChar: nine
Encoding: 267 57 11
Width: 500
Flags: W
HStem: 0 21G<180 266.358> 252 70<182.916 300.365> 603 70<182.916 317.084>
VStem: 55 74<378.624 546.006> 371 74<378.372 546.006>
LayerCount: 4
Back
Fore
SplineSet
250 603 m 0
 190 603 129 559 129 462 c 0
 129 366 190 322 250 322 c 0
 310 322 371 366 371 462 c 0
 371 559 310 603 250 603 c 0
250 673 m 0
 347 673 445 606 445 462 c 0
 445 453 445 402 410 327 c 2
 257 0 l 1
 180 0 l 1
 302 261 l 1
 286 256 267 252 250 252 c 0
 153 252 55 319 55 462 c 0
 55 606 153 673 250 673 c 0
EndSplineSet
Validated: 1
Layer: 2
Layer: 3
EndChar
StartChar: colon
Encoding: 268 58 12
Width: 214
VWidth: 0
Flags: W
HStem: -6 102<63.2266 148.773> 283 102<63.2266 148.773>
VStem: 55 102<2.22656 87.7734 291.227 376.773>
LayerCount: 4
Back
Fore
SplineSet
106 96 m 0
 136 96 157 75 157 45 c 0
 157 15 136 -6 106 -6 c 0
 76 -6 55 15 55 45 c 0
 55 75 76 96 106 96 c 0
106 385 m 0
 136 385 157 364 157 334 c 0
 157 304 136 283 106 283 c 0
 76 283 55 304 55 334 c 0
 55 364 76 385 106 385 c 0
EndSplineSet
Validated: 1
Layer: 2
Layer: 3
EndChar
StartChar: semicolon
Encoding: 59 59 40
Width: 213
VWidth: 0
Flags: HW
HStem: 283 102<63.2266 148.773>
VStem: 56 102<2.13565 87.877 291.898 376.102>
LayerCount: 4
Back
Fore
SplineSet
107 96 m 0
 132 96 158 80 158 45 c 0
 158 39 157 23 149 0 c 2
 104 -121 l 1
 59 -121 l 1
 88 -3 l 1
 70 3 56 19 56 45 c 0
 56 80 82 96 107 96 c 0
106 385 m 0
 136 385 157 364 157 334 c 0
 157 304 136 283 106 283 c 0
 76 283 55 304 55 334 c 0
 55 364 76 385 106 385 c 0
EndSplineSet
Layer: 2
Layer: 3
EndChar
StartChar: question
Encoding: 299 63 43
Width: 564
VWidth: 0
Flags: W
HStem: -6 102<232.227 317.773> 603 70<179.303 344.235>
VStem: 224 102<2.22656 87.7734> 243 62<180.027 289.979> 391 74<421.763 557.108>
LayerCount: 4
Back
SplineSet
244.234375 256 m 9
 237.234375 316 l 17
 337.234375 316 391.234375 360 391.234375 456 c 0
 391.234375 553 330.234375 597 270.234375 597 c 0
 241.234375 597 188.234375 597 136.234375 529 c 1
 79.234375 573 l 1
 151.234375 667 235.234375 667 270.234375 667 c 0
 367.234375 667 465.234375 600 465.234375 456 c 0
 465.234375 313 371.234375 256 244.234375 256 c 9
237.234375 180 m 1
 237.234375 316 l 1
 311.234375 316 l 1
 311.234375 180 l 1
 237.234375 180 l 1
275.234375 96 m 0
 305.234375 96 326.234375 75 326.234375 45 c 0
 326.234375 15 305.234375 -6 275.234375 -6 c 0
 245.234375 -6 224.234375 15 224.234375 45 c 0
 224.234375 75 245.234375 96 275.234375 96 c 0
EndSplineSet
Fore
SplineSet
245 180 m 29xd8
 245 180 243 217 243 237 c 4
 243 301 271 349 332 389 c 4
 366 411 391 440 391 490 c 4
 391 560 336 603 271 603 c 4
 227 603 175 593 141 547 c 5
 83 591 l 5
 130 658 213 673 271 673 c 4
 372 673 465 603 465 490 c 4
 465 420 431 369 380 337 c 4
 329 305 307 276 305 226 c 6
 303 180 l 13
 245 180 l 29xd8
275 96 m 4
 305 96 326 75 326 45 c 4
 326 15 305 -6 275 -6 c 4
 245 -6 224 15 224 45 c 4xe8
 224 75 245 96 275 96 c 4
EndSplineSet
Layer: 2
SplineSet
465 490 m 4
 465 377 372 307 271 307 c 4
 213 307 130 322 83 389 c 5
 141 433 l 5
 175 387 227 377 271 377 c 4
 336 377 391 420 391 490 c 1028
EndSplineSet
Layer: 3
SplineSet
245 180 m 29xd8
 243 226 l 6
 239.946642884 295.933375511 264.90625 345.428710938 332 389 c 4
 365.546875 410.78515625 391 440 391 490 c 4
 391 560 336 603 271 603 c 4
 227 603 175 593 141 547 c 5
 83 591 l 5
 130 658 213 673 271 673 c 4
 372 673 465 603 465 490 c 4
 465 420 430.771484375 368.97265625 380 337 c 4
 329.228515625 305.02734375 307.180969368 275.952411079 305 226 c 6
 303 180 l 13
 245 180 l 29xd8
275 96 m 4
 305 96 326 75 326 45 c 4
 326 15 305 -6 275 -6 c 4
 245 -6 224 15 224 45 c 4xe8
 224 75 245 96 275 96 c 4
EndSplineSet
EndChar
StartChar: at
Encoding: 372 64 116
Width: 874
VWidth: 0
Flags: W
HStem: -190 68<224.703 656.026> -6 66<347.805 482.665> 232 62<356.201 538> 418 64<226.391 494.9> 608 66<345 564.804>
VStem: 80 74<-50.6352 347.819> 248 70<87.443 197.389> 538 68<0 59 118.213 230.45 289 372.714> 726 68<-50.6352 447.266>
LayerCount: 4
Back
SplineSet
701 -6 m 6
 485 -6 l 6
 358.481445312 -6 250 55.7587890625 250 221.5 c 6
 250 445.5 l 6
 250 611.241210938 358.481445312 673 485 673 c 6
 591 673 l 6
 687 673 766 618 766 480 c 5
 766 191 l 5
 698 191 l 5
 698 481 l 5
 698 573 655 609 581 609 c 6
 485 609 l 6
 395.158203125 609 322 563.3984375 322 445.5 c 6
 322 221.5 l 6
 322 103.6015625 395.158203125 62 485 62 c 6
 701 62 l 6
 790.841796875 62 866 103.6015625 866 221.5 c 6
 866 667 l 29
 934 667 l 29
 934 221.5 l 6
 934 55.7587890625 827.518554688 -6 701 -6 c 6
408 337 m 4
 408 449 530 512 738 474 c 13
 738 395 l 6
 738 251.283203125 660 185 563 185 c 4
 475 185 408 246 408 337 c 4
478 331 m 4
 478 283 519 251 573 251 c 4
 635 251 698 297 698 395 c 6
 739 416 l 21
 561.57421875 436.633789062 478 418 478 331 c 4
EndSplineSet
Fore
SplineSet
318 140 m 0
 318 92 359 60 413 60 c 0
 475 60 538 106 538 204 c 2
 538 229 l 1
 512 231 488 232 467 232 c 0
 366 232 318 206 318 140 c 0
538 289 m 1
 538 381 495 418 421 418 c 2
 317 418 l 2
 227 418 154 372 154 254 c 2
 154 38 l 2
 154 -80 225 -122 315 -122 c 2
 561 -122 l 2
 651 -122 726 -80 726 38 c 2
 726 306 l 2
 726 529 616 608 421 608 c 2
 345 608 l 1
 345 674 l 1
 421 674 l 2
 653 674 794 577 794 306 c 2
 794 38 l 2
 794 -128 688 -190 561 -190 c 2
 315 -190 l 2
 188 -190 80 -128 80 38 c 2
 80 254 l 2
 80 420 190 482 317 482 c 2
 431 482 l 2
 527 482 606 427 606 289 c 2
 606 0 l 1
 538 0 l 1
 538 59 l 1
 506 15 457 -6 403 -6 c 0
 315 -6 248 55 248 146 c 0
 248 236 326 294 465 294 c 0
 487 294 512 292 538 289 c 1
EndSplineSet
Validated: 1
Layer: 2
SplineSet
318 140 m 4
 318 92 359 60 413 60 c 4
 475 60 538 106 538 204 c 6
 538 229 l 5
 512 231 488 232 467 232 c 4
 366 232 318 206 318 140 c 4
538 289 m 5
 538 381 495 418 421 418 c 6
 317 418 l 6
 227 418 154 372 154 254 c 6
 154 38 l 6
 154 -80 225 -122 315 -122 c 6
 561 -122 l 6
 651 -122 726 -80 726 38 c 6
 726 306 l 6
 726 529 616 608 421 608 c 6
 345 608 l 5
 345 674 l 5
 421 674 l 6
 653 674 794 577 794 306 c 6
 794 38 l 6
 794 -128 688 -190 561 -190 c 6
 315 -190 l 6
 188 -190 80 -128 80 38 c 6
 80 254 l 6
 80 420 190 482 317 482 c 6
 431 482 l 6
 527 482 606 427 606 289 c 6
 606 0 l 5
 538 0 l 5
 538 59 l 5
 506 15 457 -6 403 -6 c 4
 315 -6 248 55 248 146 c 4
 248 236.123138289 326.090801437 293.831226926 464.567277023 293.831226926 c 4
 487.425950351 293.831226926 511.930070907 292.258741137 538 289 c 5
EndSplineSet
Layer: 3
EndChar
StartChar: A
Encoding: 65 65 13
Width: 619
Flags: HW
HStem: 0 21G<40 122.909 497.091 579> 165 70<195 424> 647 20G<270.864 349.106>
AnchorPoint: "Center" 15 0 basechar 0
AnchorPoint: "Bottom" 541 0 basechar 0
AnchorPoint: "Top" 310 730 basechar 0
LayerCount: 4
Back
Fore
SplineSet
278 667 m 1
 342 667 l 1
 579 0 l 1
 504 0 l 1
 447 165 l 1
 173 165 l 1
 116 0 l 1
 40 0 l 1
 278 667 l 1
310 571 m 1
 195 235 l 1
 424 235 l 1
 310 571 l 1
EndSplineSet
Layer: 2
Layer: 3
EndChar
StartChar: B
Encoding: 66 66 14
Width: 540
VWidth: 0
Flags: W
HStem: 0 69<153 366.121> 309 68<153 353.283> 598 69<153 352.848>
VStem: 80 73<69 309 377 598> 398 73<422.224 552.338> 417 73<120.808 257.078>
LayerCount: 4
Back
Fore
SplineSet
394 344 m 1xf8
 454 323 490 258 490 189 c 0xf4
 490 88 414 0 295 0 c 10
 80 0 l 1
 80 667 l 25
 285 667 l 2
 398 667 471 583 471 488 c 0
 471 425 438 371 394 344 c 1xf8
417 189 m 0
 417 252 369 309 295 309 c 2
 153 309 l 1
 153 69 l 1
 295 69 l 2
 369 69 417 125 417 189 c 0
285 377 m 2
 354 377 398 429 398 488 c 0xf8
 398 546 353 598 285 598 c 2
 153 598 l 1
 153 377 l 1
 285 377 l 2
EndSplineSet
Validated: 1
Layer: 2
Layer: 3
EndChar
StartChar: C
Encoding: 67 67 15
Width: 521
VWidth: 0
Flags: W
HStem: -6 70<204.775 389.01> 603 70<204.775 385.957>
VStem: 65 74<129.695 534.141>
AnchorPoint: "Center" 0 0 basechar 0
AnchorPoint: "Bottom" 290 0 basechar 0
AnchorPoint: "Top" 290 730 basechar 0
LayerCount: 4
Back
Fore
SplineSet
290 673 m 0
 350 673 435 658 483 591 c 1
 425 548 l 1
 390 594 336 603 290 603 c 0
 210 603 139 563 139 446 c 2
 139 222 l 2
 139 104 210 64 290 64 c 0
 345 64 397 74 436 129 c 1
 494 86 l 1
 442 11 360 -6 290 -6 c 0
 173 -6 65 56 65 222 c 2
 65 446 l 2
 65 611 173 673 290 673 c 0
EndSplineSet
Layer: 2
Layer: 3
EndChar
StartChar: D
Encoding: 68 68 17
Width: 574
VWidth: 0
Flags: W
HStem: 0 70<154 367.672> 597 70<154 367.672>
VStem: 80 74<70 597> 435 74<139.365 528.141>
AnchorPoint: "Center" 0 0 basechar 0
AnchorPoint: "Bottom" 282 0 basechar 0
AnchorPoint: "Top" 285 730 basechar 0
LayerCount: 4
Back
Fore
SplineSet
154 597 m 1
 154 70 l 1
 274 70 l 18
 364 70 435 110 435 228 c 2
 435 440 l 2
 435 557 364 597 274 597 c 10
 154 597 l 1
80 667 m 1
 274 667 l 2
 401 667 509 605 509 440 c 2
 509 228 l 2
 509 62 401 0 274 0 c 10
 80 0 l 1
 80 667 l 1
EndSplineSet
Validated: 1
Layer: 2
Layer: 3
EndChar
StartChar: E
Encoding: 274 69 18
Width: 495
VWidth: 0
Flags: W
HStem: 0 70<156 440> 308 70<156 389> 597 70<154 439>
VStem: 80 76<70 308 378 597>
AnchorPoint: "Center" 0 0 basechar 0
AnchorPoint: "Bottom" 256 0 basechar 0
AnchorPoint: "Top" 256 730 basechar 0
LayerCount: 4
Back
Fore
SplineSet
80 667 m 1
 439 667 l 1
 439 597 l 1
 154 597 l 1
 154 378 l 1
 389 378 l 1
 389 308 l 1
 156 308 l 1
 156 70 l 1
 440 70 l 1
 440 0 l 1
 80 0 l 1
 80 667 l 1
EndSplineSet
Validated: 1
Layer: 2
Layer: 3
EndChar
StartChar: F
Encoding: 70 70 19
Width: 504
VWidth: 0
Flags: W
HStem: 0 21G<80 154> 308 70<154 389> 597 70<154 439>
VStem: 80 74<0 308 378 597>
LayerCount: 4
Back
Fore
SplineSet
80 667 m 1
 439 667 l 1
 439 597 l 1
 154 597 l 1
 154 378 l 1
 389 378 l 1
 389 308 l 1
 154 308 l 1
 154 0 l 1
 80 0 l 1
 80 667 l 1
EndSplineSet
Validated: 1
Layer: 2
Layer: 3
EndChar
StartChar: H
Encoding: 72 72 20
Width: 600
VWidth: 0
Flags: W
HStem: 0 21G<80 154 446 520> 308 70<154 446> 647 20G<80 154 446 520>
VStem: 80 74<0 308 378 667> 446 74<0 308 378 667>
AnchorPoint: "Center" 0 0 basechar 0
AnchorPoint: "Bottom" 300 0 basechar 0
AnchorPoint: "Top" 300 730 basechar 0
LayerCount: 4
Back
Fore
SplineSet
80 667 m 1
 154 667 l 1
 154 378 l 1
 446 378 l 1
 446 667 l 1
 520 667 l 1
 520 0 l 1
 446 0 l 1
 446 308 l 1
 154 308 l 1
 154 0 l 1
 80 0 l 1
 80 667 l 1
EndSplineSet
Validated: 1
Layer: 2
Layer: 3
EndChar
StartChar: I
Encoding: 73 73 21
Width: 234
VWidth: 0
Flags: W
HStem: 0 21G<80 154> 647 20G<80 154>
VStem: 80 74<0 667>
AnchorPoint: "Center" 0 0 basechar 0
AnchorPoint: "Bottom" 117 0 basechar 0
AnchorPoint: "Top" 117 730 basechar 0
LayerCount: 4
Back
Fore
SplineSet
154 667 m 1
 154 0 l 1
 80 0 l 1
 80 667 l 1
 154 667 l 1
EndSplineSet
Validated: 1
Layer: 2
Layer: 3
EndChar
StartChar: J
Encoding: 74 74 22
Width: 471
VWidth: 0
Flags: W
HStem: -6 70<136.811 273.411> 647 20G<322 396>
VStem: 322 74<118.264 667>
AnchorPoint: "Center" 0 0 basechar 0
AnchorPoint: "Bottom" 211 0 basechar 0
AnchorPoint: "Top" 359 730 basechar 0
LayerCount: 4
Back
Fore
SplineSet
322 667 m 1
 396 667 l 1
 396 200 l 2
 396 59 300 -6 211 -6 c 0
 183 -6 102 -6 30 88 c 1
 87 132 l 1
 139 64 189 64 211 64 c 0
 263 64 322 107 322 200 c 2
 322 667 l 1
EndSplineSet
Validated: 1
Layer: 2
Layer: 3
EndChar
StartChar: K
Encoding: 75 75 34
Width: 584
VWidth: 0
Flags: HW
HStem: 0 21G<85 159 436.886 539> 647 20G<85 159 423.615 526>
VStem: 85 74<0 236 324 667>
AnchorPoint: "Top" 5 0 basechar 0
AnchorPoint: "Center" 5 0 basechar 0
AnchorPoint: "Bottom" 295 0 basechar 0
LayerCount: 4
Back
Fore
SplineSet
159 0 m 1
 85 0 l 1
 85 667 l 1
 159 667 l 1
 159 324 l 1
 440 667 l 1
 526 667 l 1
 268 358 l 1
 539 0 l 1
 452 0 l 1
 220 307 l 1
 159 236 l 1
 159 0 l 1
EndSplineSet
Layer: 2
Layer: 3
EndChar
StartChar: L
Encoding: 76 76 23
Width: 520
VWidth: 0
Flags: W
HStem: 0 70<154 460> 647 20G<80 154>
VStem: 80 74<70 667>
AnchorPoint: "Bottom" 267 0 basechar 0
AnchorPoint: "Center" 270 334 basechar 0
AnchorPoint: "Top" 118 730 basechar 0
LayerCount: 4
Back
Fore
SplineSet
80 667 m 1
 154 667 l 1
 154 70 l 1
 460 70 l 1
 460 0 l 1
 80 0 l 1
 80 667 l 1
EndSplineSet
Validated: 1
Layer: 2
Layer: 3
EndChar
StartChar: M
Encoding: 77 77 27
Width: 727
VWidth: 0
Flags: W
HStem: 0 21G<80 152 575 647> 647 20G<80 153.377 572.623 647>
VStem: 80 72<0 511> 575 72<0 513>
LayerCount: 4
Back
Fore
SplineSet
80 667 m 1
 143 667 l 1
 363 243 l 1
 583 667 l 1
 647 667 l 1
 647 0 l 1
 575 0 l 1
 575 513 l 1
 395 165 l 1
 331 165 l 1
 152 511 l 1
 152 0 l 1
 80 0 l 1
 80 667 l 1
EndSplineSet
Validated: 1
Layer: 2
Layer: 3
EndChar
StartChar: N
Encoding: 289 78 33
Width: 596
VWidth: 0
Flags: W
HStem: 0 21G<80 152 441.423 516> 647 20G<80 154.577 444 516>
VStem: 80 72<0 520> 444 72<147 667>
AnchorPoint: "Center" 0 0 basechar 0
AnchorPoint: "Bottom" 300 0 basechar 0
AnchorPoint: "Top" 298 730 basechar 0
LayerCount: 4
Back
Fore
SplineSet
80 667 m 1
 143 667 l 1
 444 147 l 1
 444 667 l 1
 516 667 l 1
 516 0 l 1
 453 0 l 1
 152 520 l 1
 152 0 l 1
 80 0 l 1
 80 667 l 1
EndSplineSet
Validated: 1
Layer: 2
Layer: 3
EndChar
StartChar: O
Encoding: 272 79 16
Width: 600
VWidth: 0
Flags: W
HStem: -6 70<205.407 394.593> 603 70<205.407 394.593>
VStem: 65 74<133.365 534.141> 461 74<133.365 534.141>
AnchorPoint: "Center" 0 0 basechar 0
AnchorPoint: "Bottom" 300 0 basechar 0
AnchorPoint: "Top" 300 730 basechar 0
LayerCount: 4
Back
Fore
SplineSet
300 603 m 4
 210 603 139 563 139 446 c 6
 139 222 l 6
 139 104 210 64 300 64 c 4
 390 64 461 104 461 222 c 6
 461 446 l 6
 461 563 390 603 300 603 c 4
300 673 m 4
 427 673 535 611 535 446 c 6
 535 222 l 6
 535 56 427 -6 300 -6 c 4
 173 -6 65 56 65 222 c 6
 65 446 l 6
 65 611 173 673 300 673 c 4
EndSplineSet
Validated: 1
Layer: 2
Layer: 3
EndChar
StartChar: P
Encoding: 80 80 31
Width: 527
VWidth: 0
Flags: W
HStem: 0 21G<80 153> 258 69<153 353.086> 598 69<153 353.498>
VStem: 80 73<0 258 327 598> 409 73<380.303 544.337>
LayerCount: 4
Back
Fore
SplineSet
153 598 m 1
 153 327 l 1
 282 327 l 2
 351 327 409 371 409 462 c 0
 409 554 352 598 282 598 c 2
 153 598 l 1
80 667 m 1
 282 667 l 2
 388 667 482 602 482 462 c 0
 482 323 387 258 282 258 c 2
 153 258 l 1
 153 0 l 1
 80 0 l 1
 80 667 l 1
EndSplineSet
Validated: 1
Layer: 2
Layer: 3
EndChar
StartChar: Q
Encoding: 81 81 30
Width: 600
VWidth: 0
Flags: W
HStem: -6 70<205.407 377.867> 603 70<205.407 394.593>
VStem: 65 74<133.365 534.141> 461 74<129.695 534.141>
LayerCount: 4
Back
SplineSet
390 66 m 5
 544 -36 l 5
 507 -95 l 5
 352 7 l 5
 390 66 l 5
300 603 m 4
 210 603 139 563 139 446 c 6
 139 222 l 6
 139 104 210 64 300 64 c 4
 390 64 461 104 461 222 c 6
 461 446 l 6
 461 563 390 603 300 603 c 4
300 673 m 4
 427 673 535 611 535 446 c 6
 535 222 l 6
 535 56 427 -6 300 -6 c 4
 173 -6 65 56 65 222 c 6
 65 446 l 6
 65 611 173 673 300 673 c 4
EndSplineSet
Fore
SplineSet
300 673 m 0
 427 673 535 611 535 446 c 2
 535 222 l 2
 535 126 499 65 444 30 c 1
 544 -36 l 1
 507 -95 l 1
 363 -0 l 1
 343 -4 322 -6 300 -6 c 0
 173 -6 65 56 65 222 c 2
 65 446 l 2
 65 611 173 673 300 673 c 0
300 603 m 0
 210 603 139 563 139 446 c 2
 139 222 l 2
 139 104 210 64 300 64 c 0
 390 64 461 104 461 222 c 2
 461 446 l 2
 461 563 390 603 300 603 c 0
EndSplineSet
Validated: 1
Layer: 2
Layer: 3
EndChar
StartChar: R
Encoding: 82 82 32
Width: 548
VWidth: 0
Flags: W
HStem: 0 21G<80 153 406.506 493> 258 69<153 304.626> 598 69<153 353.498>
VStem: 80 73<0 258 327 598> 408 74<379.345 544.337>
AnchorPoint: "Center" 0 0 basechar 0
AnchorPoint: "Bottom" 282 0 basechar 0
AnchorPoint: "Top" 260 730 basechar 0
LayerCount: 4
Back
Fore
SplineSet
80 667 m 1
 282 667 l 0
 388 667 482 602 482 462 c 0
 482 367 437 306 375 277 c 1
 493 0 l 1
 415 0 l 1
 305 259 l 1
 297 258 290 258 282 258 c 2
 153 258 l 1
 153 0 l 1
 80 0 l 1
 80 667 l 1
153 598 m 1
 153 327 l 1
 282 327 l 2
 351 327 408 371 408 462 c 0
 408 554 352 598 282 598 c 2
 153 598 l 1
EndSplineSet
Validated: 1
Layer: 2
Layer: 3
EndChar
StartChar: T
Encoding: 285 84 29
Width: 490
VWidth: 0
Flags: W
HStem: 0 21G<208 282> 597 70<20 208 282 470>
VStem: 208 74<0 597>
AnchorPoint: "Center" 0 0 basechar 0
AnchorPoint: "Bottom" 246 0 basechar 0
AnchorPoint: "Top" 245 730 basechar 0
LayerCount: 4
Back
Fore
SplineSet
20 667 m 1
 470 667 l 1
 470 597 l 1
 282 597 l 1
 282 0 l 1
 208 0 l 1
 208 597 l 1
 20 597 l 1
 20 667 l 1
EndSplineSet
Validated: 1
Layer: 2
Layer: 3
EndChar
StartChar: U
Encoding: 280 85 24
Width: 570
VWidth: 0
Flags: W
HStem: -6 70<206.534 363.466> 647 20G<70 144 426 500>
VStem: 70 74<129.695 667> 426 74<129.695 667>
AnchorPoint: "Center" 0 0 basechar 0
AnchorPoint: "Bottom" 283 0 basechar 0
AnchorPoint: "Top" 285 730 basechar 0
LayerCount: 4
Back
Fore
SplineSet
70 667 m 1
 144 667 l 1
 144 222 l 2
 144 104 215 64 285 64 c 0
 355 64 426 104 426 222 c 2
 426 667 l 1
 500 667 l 1
 500 222 l 2
 500 56 392 -6 285 -6 c 0
 178 -6 70 56 70 222 c 2
 70 667 l 1
EndSplineSet
Validated: 1
Layer: 2
Layer: 3
EndChar
StartChar: V
Encoding: 86 86 25
Width: 619
Flags: HW
HStem: 0 21G<270.864 349.106> 647 20G<40 123.881 496.119 579>
LayerCount: 4
Back
Fore
SplineSet
40 667 m 1
 117 667 l 1
 310 106 l 1
 503 667 l 1
 579 667 l 1
 342 0 l 1
 278 0 l 1
 40 667 l 1
EndSplineSet
Layer: 2
Layer: 3
EndChar
StartChar: W
Encoding: 87 87 26
Width: 812
VWidth: 0
Flags: HW
HStem: 0 21G<218.483 296 518 594.487> 647 20G<40 120.035 691.991 772>
VStem: 40 75<641.625 667> 697 75<641.486 667>
AnchorPoint: "Bottom" 15 0 basechar 0
AnchorPoint: "Center" 15 0 basechar 0
AnchorPoint: "Top" 406 730 basechar 0
LayerCount: 4
Back
Fore
SplineSet
40 667 m 1
 115 667 l 1
 257 103 l 1
 375 502 l 1
 439 502 l 1
 556 104 l 1
 697 667 l 1
 772 667 l 1
 589 0 l 1
 524 0 l 1
 407 390 l 1
 290 0 l 1
 224 0 l 1
 40 667 l 1
EndSplineSet
Layer: 2
Layer: 3
EndChar
StartChar: X
Encoding: 88 88 36
Width: 527
VWidth: 0
Flags: W
HStem: 0 21G<25 117.408 409.664 502> 647 20G<26 120.232 410.551 502>
LayerCount: 4
Back
Fore
SplineSet
26 667 m 1
 109 667 l 1
 264 391 l 1
 422 667 l 1
 502 667 l 1
 311 334 l 1
 502 0 l 1
 421 0 l 1
 264 277 l 1
 106 0 l 1
 25 0 l 1
 218 334 l 1
 26 667 l 1
EndSplineSet
Validated: 1
Layer: 2
Layer: 3
EndChar
StartChar: Y
Encoding: 89 89 37
Width: 551
VWidth: 0
Flags: HW
HStem: 0 21G<238 312> 647 20G<40 130.968 421.838 511>
VStem: 238 74<0 277>
AnchorPoint: "Bottom" 15 0 basechar 0
AnchorPoint: "Center" 15 0 basechar 0
AnchorPoint: "Top" 275.5 730 basechar 0
LayerCount: 4
Back
Fore
SplineSet
40 667 m 1
 121 667 l 1
 275 358 l 1
 432 667 l 1
 511 667 l 1
 312 277 l 1
 312 0 l 1
 238 0 l 1
 238 277 l 1
 40 667 l 1
EndSplineSet
Layer: 2
Layer: 3
EndChar
StartChar: Z
Encoding: 294 90 38
Width: 530
VWidth: 0
Flags: W
HStem: 0 70<142 475> 597 70<65 377>
AnchorPoint: "Center" 0 0 basechar 0
AnchorPoint: "Bottom" 265 0 basechar 0
AnchorPoint: "Top" 265 730 basechar 0
LayerCount: 4
Back
Fore
SplineSet
65 667 m 1
 465 667 l 1
 465 617 l 1
 142 70 l 1
 475 70 l 1
 475 0 l 1
 55 0 l 1
 55 50 l 1
 377 597 l 1
 65 597 l 1
 65 667 l 1
EndSplineSet
Validated: 1
Layer: 2
Layer: 3
EndChar
StartChar: bracketleft
Encoding: 91 91 72
Width: 279
VWidth: 0
Flags: W
HStem: -130 57<140 234> 740 57<140 234>
VStem: 80 154<-130 -73 740 797> 80 60<-73 740>
LayerCount: 4
Back
Fore
SplineSet
80 797 m 1xe0
 234 797 l 1
 234 740 l 1xe0
 140 740 l 1
 140 -73 l 1xd0
 234 -73 l 1
 234 -130 l 1
 80 -130 l 1
 80 797 l 1xe0
EndSplineSet
Validated: 1
Layer: 2
Layer: 3
EndChar
StartChar: backslash
Encoding: 92 92 67
Width: 303
VWidth: 0
Flags: W
VStem: 0 302
LayerCount: 4
Back
Fore
SplineSet
0 797 m 1
 62 797 l 1
 302 -130 l 1
 240 -130 l 1
 0 797 l 1
EndSplineSet
Validated: 1
Layer: 2
Layer: 3
EndChar
StartChar: bracketright
Encoding: 93 93 50
Width: 279
VWidth: 0
Flags: W
HStem: -130 57<45 139> 740 57<45 139>
VStem: 45 154<-130 -73 740 797> 139 60<-73 740>
LayerCount: 4
Back
Fore
SplineSet
45 797 m 1xe0
 199 797 l 1
 199 -130 l 1
 45 -130 l 1
 45 -73 l 1xe0
 139 -73 l 1
 139 740 l 1xd0
 45 740 l 1
 45 797 l 1xe0
EndSplineSet
Validated: 1
Layer: 2
Layer: 3
EndChar
StartChar: asciicircum
Encoding: 369 94 113
Width: 474
Flags: W
HStem: 465 202
LayerCount: 4
Back
SplineSet
275 665 m 5
 199 665 l 5
 35 465 l 5
 111 465 l 5
 275 665 l 5
275 665 m 5
 199 665 l 5
 363 465 l 5
 439 465 l 5
 275 665 l 5
EndSplineSet
Fore
SplineSet
199 667 m 1
 275 667 l 1
 439 465 l 1
 363 465 l 1
 237 619 l 1
 111 465 l 1
 35 465 l 1
 199 667 l 1
EndSplineSet
Validated: 1
Layer: 2
Layer: 3
EndChar
StartChar: underscore
Encoding: 386 95 130
Width: 420
VWidth: 0
Flags: W
HStem: -66 66<25 395>
LayerCount: 4
Back
Fore
SplineSet
25 0 m 1
 395 0 l 1
 395 -66 l 1
 25 -66 l 1
 25 0 l 1
EndSplineSet
Validated: 1
Layer: 2
Layer: 3
EndChar
StartChar: grave
Encoding: 367 96 111
Width: 333
Flags: W
HStem: 517 150
VStem: 80 173
AnchorPoint: "Top" 197 517 mark 0
LayerCount: 4
Back
Fore
SplineSet
80 667 m 25
 158 667 l 25
 253 517 l 1
 186 517 l 1
 80 667 l 25
EndSplineSet
Validated: 1
Layer: 2
Layer: 3
EndChar
StartChar: a
Encoding: 97 97 47
Width: 481
VWidth: 0
Flags: W
HStem: -6 65<152.589 288.599> 233 61<162.763 345> 419 64<134.929 305.778>
VStem: 55 69<87.2396 197.547> 345 68<0 59 117.918 231.079 289 373.714>
AnchorPoint: "Center" -5 0 basechar 0
AnchorPoint: "Bottom" 379 0 basechar 0
AnchorPoint: "Top" 238 546 basechar 0
LayerCount: 4
Back
SplineSet
210 483 m 4
 306.4609375 483 384.615234375 416.630859375 384.999023438 273.341796875 c 6
 385 204.5 l 6
 384.999023438 60.62890625 306.649414062 -6 210 -6 c 4
 113.350585938 -6 25.0009765625 60.62890625 25 204.5 c 6
 25 272.5 l 6
 25.0009765625 416.37109375 113.350585938 483 210 483 c 4
220 417 m 4
 158.166992188 417 95.248046875 371.44140625 95.0009765625 273.078125 c 6
 95 204.5 l 6
 95.0009765625 105.73828125 158.044921875 60 220 60 c 4
 281.833007812 60 344.751953125 105.55859375 344.999023438 203.921875 c 6
 345 272.5 l 6
 344.999023438 371.26171875 281.955078125 417 220 417 c 4
345 477 m 5
 413 477 l 5
 413 0 l 5
 345 0 l 5
 345 477 l 5
EndSplineSet
Fore
SplineSet
345 289 m 1
 345 380 301 419 238 419 c 0
 187 419 147 407 110 384 c 1
 74 438 l 1
 117 465 173 483 238 483 c 0
 334 483 413 428 413 290 c 2
 413 0 l 1
 345 0 l 1
 345 59 l 1
 313 15 264 -6 210 -6 c 0
 122 -6 55 55 55 146 c 0
 55 236 133 294 272 294 c 0
 295 294 319 293 345 289 c 1
124 140 m 0
 124 92 165 59 220 59 c 0
 282 59 345 106 345 204 c 2
 345 229 l 1
 319 232 295 233 274 233 c 0
 172 233 124 206 124 140 c 0
EndSplineSet
Layer: 2
SplineSet
240 483 m 0
 336.4609375 483 414.615234375 426.630859375 414.999023438 283.341796875 c 13
 435 204.5 l 2
 434.999023438 60.62890625 336.649414062 -6 240 -6 c 0
 143.350585938 -6 45.0009765625 60.62890625 45 204.5 c 2
 -15 272.5 l 2
 -14.9990234375 416.37109375 113.350585938 483 240 483 c 0
240 419 m 0
 147.166992188 419 53.248046875 372.44140625 53.0009765625 273.078125 c 9
 115 204.5 l 2
 115.000976562 105.73828125 178.044921875 60 240 60 c 0
 301.833007812 60 364.751953125 105.55859375 364.999023438 203.921875 c 2
 345 282.5 l 21
 344.999023438 381.26171875 301.955078125 419 240 419 c 0
EndSplineSet
Layer: 3
SplineSet
238 483 m 4
 334 483 413 428 413 290 c 5
 413 0 l 5
 345 0 l 5
 345 291 l 5
 345 381 300 419 238 419 c 4
 187 419 147 407 110 384 c 4
 74 438 l 4
 117 465 173 483 238 483 c 4
55 146 m 4
 55 236 133 294 272 294 c 4
 306 294 344 291 385 283 c 13
 385 204 l 6
 385 60 307 -6 210 -6 c 4
 122 -6 55 55 55 146 c 4
124 140 m 4
 124 92 165 59 220 59 c 4
 282 59 345 106 345 204 c 6
 386 225 l 21
 343 230 306 233 274 233 c 4
 172 233 124 206 124 140 c 4
EndSplineSet
EndChar
StartChar: b
Encoding: 98 98 55
Width: 515
VWidth: 0
Flags: W
HStem: -6 66<193.335 331.316> 417 66<193.335 331.316> 647 20G<70 138>
VStem: 70 68<0 59 118.213 358.524 418 667> 388 70<120.972 355.551>
LayerCount: 4
Back
SplineSet
273 483 m 4
 177 483 98 417 98 273 c 6
 98 204 l 6
 98 61 176 -6 273 -6 c 4
 370 -6 458 61 458 204 c 6
 458 272 l 6
 458 416 370 483 273 483 c 4
263 417 m 4
 325 417 388 371 388 273 c 6
 388 204 l 6
 388 106 325 60 263 60 c 4
 201 60 138 106 138 204 c 6
 138 272 l 6
 138 371 201 417 263 417 c 4
138 667 m 5
 70 667 l 5
 70 0 l 5
 138 0 l 5
 138 667 l 5
EndSplineSet
Fore
SplineSet
70 667 m 1
 138 667 l 1
 138 418 l 1
 170 462 219 483 273 483 c 0
 370 483 458 416 458 272 c 2
 458 204 l 2
 458 61 370 -6 273 -6 c 0
 219 -6 170 15 138 59 c 1
 138 0 l 1
 70 0 l 1
 70 667 l 1
263 417 m 0
 201 417 138 371 138 272 c 2
 138 204 l 2
 138 106 201 60 263 60 c 0
 325 60 388 106 388 204 c 2
 388 273 l 2
 388 371 325 417 263 417 c 0
EndSplineSet
Validated: 1
Layer: 2
Layer: 3
EndChar
StartChar: c
Encoding: 99 99 54
Width: 434
VWidth: 0
Flags: W
HStem: -6 66<180.151 320.593> 417 66<180.804 322.224>
VStem: 54 70<120.572 355.551>
AnchorPoint: "Center" 4 0 basechar 0
AnchorPoint: "Bottom" 249 0 basechar 0
AnchorPoint: "Top" 249 546 basechar 0
LayerCount: 4
Back
SplineSet
249 -6 m 0
 269.524414062 -6 348.0390625 -5.890625 420 87.75 c 1
 365.165039062 129.70703125 l 1
 313.067382812 62.111328125 268.388671875 60 249 60 c 0
 187.044921875 60 124.000976562 105.73828125 124 204.5 c 2
 124.000976562 273.078125 l 2
 124.248046875 371.44140625 187.166992188 417 249 417 c 0
 266.752929688 417 309.8671875 414.9609375 358.146484375 352.3203125 c 1
 413 394.25 l 1
 345.180664062 482.500976562 267.8046875 483 249 483 c 0
 152.350585938 483 54.0009765625 416.37109375 54 272.5 c 2
 54 204.5 l 2
 54.0009765625 60.62890625 152.350585938 -6 249 -6 c 0
EndSplineSet
Fore
SplineSet
249 483 m 0
 310 483 352 458 377 437 c 0
 339 383 l 1
 318 400 291 417 249 417 c 0
 187 417 124 371 124 273 c 2
 124 204 l 2
 124 107 184 60 249 60 c 0
 290 60 317 76 343 99 c 1
 384 47 l 1
 352 17 309 -6 249 -6 c 0
 152 -6 54 60 54 204 c 2
 54 272 l 2
 54 416 152 483 249 483 c 0
EndSplineSet
Layer: 2
SplineSet
249 483 m 4
 345.4609375 483 443.615234375 416.630859375 443.999023438 273.341796875 c 6
 444 204.5 l 6
 443.999023438 60.62890625 345.649414062 -6 249 -6 c 4
 152.350585938 -6 54.0009765625 60.62890625 54 204.5 c 6
 54 272.5 l 6
 54.0009765625 416.37109375 152.350585938 483 249 483 c 4
249 417 m 4
 187.166992188 417 124.248046875 371.44140625 124.000976562 273.078125 c 6
 124 204.5 l 6
 124.000976562 105.73828125 187.044921875 60 249 60 c 4
 310.833007812 60 373.751953125 105.55859375 373.999023438 203.921875 c 6
 374 272.5 l 6
 373.999023438 371.26171875 310.955078125 417 249 417 c 4
EndSplineSet
Layer: 3
EndChar
StartChar: d
Encoding: 100 100 49
Width: 483
VWidth: 0
Flags: W
HStem: -6 66<176.684 314.665> 417 66<176.684 314.665> 647 20G<370 438>
VStem: 50 70<120.972 355.551> 370 68<0 59 118.213 358.524 418 667>
AnchorPoint: "Top" 237 -150 basechar 0
AnchorPoint: "Center" 0 0 basechar 0
AnchorPoint: "Bottom" 540 736 basechar 0
LayerCount: 4
Back
Fore
SplineSet
370 667 m 1
 438 667 l 1
 438 0 l 1
 370 0 l 1
 370 59 l 1
 338 15 289 -6 235 -6 c 0
 138 -6 50 61 50 204 c 2
 50 272 l 2
 50 416 138 483 235 483 c 0
 289 483 338 462 370 418 c 1
 370 667 l 1
245 417 m 0
 183 417 120 371 120 273 c 2
 120 204 l 2
 120 106 183 60 245 60 c 0
 307 60 370 106 370 204 c 2
 370 272 l 2
 370 371 307 417 245 417 c 0
EndSplineSet
Layer: 2
Layer: 3
EndChar
StartChar: e
Encoding: 101 101 57
Width: 498
VWidth: 0
Flags: W
HStem: -6 65<180.905 348.596> 218 64<122 376> 419 64<177.06 320.119>
VStem: 54 68<120.972 218 282 360.69> 376 68<282 359.719>
AnchorPoint: "Center" 4 0 basechar 0
AnchorPoint: "Bottom" 259 0 basechar 0
AnchorPoint: "Top" 249 546 basechar 0
LayerCount: 4
Back
SplineSet
259 -6 m 4
 152 -6 54 61 54 204 c 6
 54 272 l 6
 54 416 152 483 249 483 c 4
 346 483 444 418 444 268 c 6
 444 218 l 5
 94 218 l 5
 94 282 l 5
 376 282 l 5
 376 371 313 419 249 419 c 4
 185 419 122 373 122 273 c 6
 122 204 l 6
 122 106 184 59 259 59 c 4
 305 59 351 73 382 99 c 5
 423 47 l 5
 378 13 324 -6 259 -6 c 4
EndSplineSet
Fore
SplineSet
259 59 m 4
 306 59 353 78 382 101 c 5
 424 48 l 5
 403 32 344 -6 259 -6 c 4
 152 -6 54 61 54 204 c 2
 54 272 l 2
 54 416 152 483 249 483 c 0
 346 483 444 418 444 268 c 2
 444 218 l 1
 122 218 l 1
 122 204 l 2
 122 106 184 59 259 59 c 4
122 282 m 1
 376 282 l 1
 376 371 313 419 249 419 c 0
 187 419 122 376 122 282 c 1
EndSplineSet
Layer: 2
SplineSet
249 483 m 0
 345.4609375 483 443.615234375 416.630859375 443.999023438 273.341796875 c 2
 494 204.5 l 2
 493.999023438 60.62890625 375.649414062 -6 259 -6 c 0
 152.350585938 -6 54.0009765625 60.62890625 54 204.5 c 2
 54 272.5 l 2
 54.0009765625 416.37109375 152.350585938 483 249 483 c 0
249 417 m 0
 187.166992188 417 122.248046875 371.44140625 122.000976562 273.078125 c 6
 122 204.5 l 6
 122.000976562 105.73828125 185.044921875 59 259 59 c 0
 340.833007812 59 423.751953125 105.55859375 423.999023438 203.921875 c 2
 374 272.5 l 2
 373.999023438 371.26171875 310.955078125 417 249 417 c 0
EndSplineSet
Layer: 3
SplineSet
259 -6 m 4
 152 -6 54 61 54 204 c 6
 54 272 l 6
 54 416 152 483 249 483 c 4
 346 483 444 418 444 268 c 6
 444 218 l 5
 94 218 l 5
 94 282 l 5
 376 282 l 5
 376 371 313 419 249 419 c 4
 185 419 122 373 122 273 c 6
 122 204 l 6
 122 106 184 59 259 59 c 4
 300 59 342 72 373 98 c 5
 413 47 l 5
 381 17 319 -6 259 -6 c 4
EndSplineSet
EndChar
StartChar: f
Encoding: 316 102 60
Width: 360
VWidth: 0
Flags: W
HStem: 0 21G<115 185> 416 61<55 115 185 295> 595 62<196.654 315>
VStem: 115 70<0 416 477 584.561>
LayerCount: 4
Back
Fore
SplineSet
55 477 m 1
 115 477 l 1
 115 527 l 2
 115 616 176 657 235 657 c 2
 315 657 l 1
 315 595 l 1
 235 595 l 2
 210 595 185 575 185 527 c 2
 185 477 l 1
 295 477 l 1
 295 416 l 1
 185 416 l 1
 185 0 l 1
 115 0 l 1
 115 416 l 1
 55 416 l 1
 55 477 l 1
EndSplineSet
Validated: 1
Layer: 2
Layer: 3
EndChar
StartChar: g
Encoding: 103 103 59
Width: 512
VWidth: 0
Flags: W
HStem: -191 66<148.404 314.446> -6 66<180.684 318.665> 417 66<180.684 318.665>
VStem: 54 70<120.572 355.551> 374 68<-63.8752 59 118.213 358.524 417 477>
AnchorPoint: "Center" 4 0 basechar 0
AnchorPoint: "Bottom" 238 -185 basechar 0
AnchorPoint: "Top" 239 546 basechar 0
LayerCount: 4
Back
SplineSet
374 477 m 5
 442 477 l 5
 442 0 l 6
 442 -101 363 -191 238 -191 c 4
 173 -191 119 -172 74 -138 c 5
 115 -86 l 5
 146 -112 192 -125 238 -125 c 4
 311 -125 374 -78 374 20 c 6
 374 477 l 5
239 483 m 4
 335 483 414 416 414 273 c 6
 414 204 l 6
 414 60 336 -6 239 -6 c 4
 142 -6 54 60 54 204 c 6
 54 272 l 6
 54 416 142 483 239 483 c 4
249 417 m 4
 187 417 124 371 124 273 c 6
 124 204 l 6
 124 105 187 60 249 60 c 4
 311 60 374 106 374 204 c 6
 374 272 l 6
 374 371 311 417 249 417 c 4
EndSplineSet
Fore
SplineSet
238 -125 m 0
 311 -125 374 -78 374 20 c 2
 374 59 l 1
 342 15 293 -6 239 -6 c 0
 142 -6 54 60 54 204 c 2
 54 272 l 2
 54 416 142 483 239 483 c 0
 293 483 342 461 374 417 c 1
 374 477 l 1
 442 477 l 1
 442 0 l 2
 442 -101 363 -191 238 -191 c 0
 153 -191 94 -153 73 -137 c 1
 115 -83 l 1
 144 -106 191 -125 238 -125 c 0
249 417 m 0
 187 417 124 371 124 273 c 2
 124 204 l 2
 124 105 187 60 249 60 c 0
 311 60 374 106 374 204 c 2
 374 272 l 2
 374 371 311 417 249 417 c 0
EndSplineSet
Layer: 2
Layer: 3
EndChar
StartChar: h
Encoding: 104 104 56
Width: 512
VWidth: 0
Flags: W
HStem: 0 21G<70 140 380 450> 417 66<195.335 330.895> 647 20G<70 140>
VStem: 70 70<0 358.787 418 667> 380 70<0 361.55>
AnchorPoint: "Center" -5 0 basechar 0
AnchorPoint: "Bottom" 260 0 basechar 0
AnchorPoint: "Top" 105.5 730 basechar 0
LayerCount: 4
Back
SplineSet
70 667 m 5
 140 667 l 5
 140 0 l 5
 70 0 l 5
 70 667 l 5
275 483 m 4
 371 483 450 417 450 273 c 6
 450 0 l 29
 380 0 l 5
 380 272 l 6
 380 371 327 417 265 417 c 4
 203 417 140 371 140 273 c 5
 100 272 l 5
 100 416 178 483 275 483 c 4
EndSplineSet
Fore
SplineSet
275 483 m 0
 371 483 450 417 450 273 c 2
 450 0 l 1
 380 0 l 1
 380 272 l 2
 380 371 327 417 265 417 c 0
 203 417 140 371 140 273 c 2
 140 0 l 1
 70 0 l 1
 70 667 l 1
 140 667 l 1
 140 418 l 1
 172 462 221 483 275 483 c 0
EndSplineSet
Layer: 2
Layer: 3
EndChar
StartChar: i
Encoding: 105 105 52
Width: 222
VWidth: 0
Flags: W
HStem: 0 21G<76 146> 540 94<70.5212 151.398>
VStem: 64 94<546.897 627.103> 76 70<0 477>
LayerCount: 4
Back
Fore
SplineSet
76 477 m 1xd0
 146 477 l 1
 146 0 l 1
 76 0 l 1
 76 477 l 1xd0
110 634 m 0
 138 634 158 615 158 587 c 0
 158 559 138 540 110 540 c 0
 84 540 64 559 64 587 c 0xe0
 64 615 84 634 110 634 c 0
EndSplineSet
Layer: 2
Layer: 3
EndChar
StartChar: k
Encoding: 107 107 68
Width: 462
VWidth: 0
Flags: W
HStem: 0 21G<70 138 327.132 422> 647 20G<70 138>
VStem: 70 68<0 137 228 667>
AnchorPoint: "Top" -5 0 basechar 0
AnchorPoint: "Center" -5 0 basechar 0
AnchorPoint: "Bottom" 232 0 basechar 0
LayerCount: 4
Back
Fore
SplineSet
70 667 m 1
 138 667 l 1
 138 228 l 1
 325 477 l 1
 407 477 l 1
 240 260 l 1
 422 0 l 1
 341 0 l 1
 194 212 l 1
 138 137 l 1
 138 0 l 1
 70 0 l 1
 70 667 l 1
EndSplineSet
Layer: 2
Layer: 3
EndChar
StartChar: l
Encoding: 108 108 51
Width: 210
VWidth: 0
Flags: W
HStem: 0 21G<70 140> 647 20G<70 140>
VStem: 70 70<0 667>
AnchorPoint: "Center" 255 334 basechar 0
AnchorPoint: "Bottom" 109 0 basechar 0
AnchorPoint: "Top" 105 730 basechar 0
LayerCount: 4
Back
Fore
SplineSet
70 667 m 1
 140 667 l 1
 140 0 l 1
 70 0 l 1
 70 667 l 1
EndSplineSet
Layer: 2
Layer: 3
EndChar
StartChar: m
Encoding: 109 109 46
Width: 740
VWidth: 0
Flags: W
HStem: 0 21G<70 140 340 408 608 678> 417 66<184.499 301.951 452.53 570.721>
VStem: 70 70<0 371.284 421 477> 340 68<0 371.091> 608 70<0 375>
CounterMasks: 1 38
LayerCount: 4
Back
SplineSet
521 483 m 4
 617 483 678 407 678 303 c 6
 678 0 l 29
 608 0 l 5
 608 302 l 6
 608 361 575 417 513 417 c 4
 451 417 408 361 408 303 c 5
 360 292 l 5
 360 396 424 483 521 483 c 4
70 477 m 5
 140 477 l 5
 140 0 l 5
 70 0 l 5
 70 477 l 5
253 483 m 4
 349 483 408 407 408 303 c 6
 408 0 l 29
 340 0 l 5
 340 302 l 6
 340 361 307 417 245 417 c 4
 183 417 140 361 140 303 c 5
 100 292 l 5
 100 396 166 483 253 483 c 4
EndSplineSet
Fore
SplineSet
70 477 m 1
 140 477 l 1
 140 421 l 1
 168 459 207 483 253 483 c 0
 315 483 362 451 387 401 c 1
 414 450 461 483 521 483 c 0
 617 483 678 407 678 303 c 2
 678 0 l 1
 608 0 l 1
 608 302 l 2
 608 361 575 417 513 417 c 0
 451 417 408 361 408 303 c 2
 408 0 l 1
 340 0 l 1
 340 302 l 2
 340 361 307 417 245 417 c 0
 183 417 140 361 140 303 c 2
 140 0 l 1
 70 0 l 1
 70 477 l 1
EndSplineSet
Validated: 1
Layer: 2
Layer: 3
EndChar
StartChar: n
Encoding: 314 110 58
Width: 515
VWidth: 0
Flags: W
HStem: 0 21G<70 140 380 450> 417 66<195.335 330.895>
VStem: 70 70<0 358.787 418 477> 380 70<0 361.55>
AnchorPoint: "Center" 0 0 basechar 0
AnchorPoint: "Bottom" 257 0 basechar 0
AnchorPoint: "Top" 275 546 basechar 0
LayerCount: 4
Back
Fore
SplineSet
275 483 m 0
 371 483 450 417 450 273 c 2
 450 0 l 1
 380 0 l 1
 380 272 l 2
 380 371 327 417 265 417 c 0
 203 417 140 371 140 273 c 2
 140 0 l 1
 70 0 l 1
 70 477 l 1
 140 477 l 1
 140 418 l 1
 172 462 221 483 275 483 c 0
EndSplineSet
Validated: 1
Layer: 2
SplineSet
70 477 m 5
 140 477 l 5
 140 0 l 5
 70 0 l 5
 70 477 l 5
275 483 m 4
 371 483 450 417 450 273 c 6
 450 0 l 29
 380 0 l 5
 380 272 l 6
 380 371 327 417 265 417 c 4
 203 417 140 371 140 273 c 5
 100 272 l 5
 100 416 178 483 275 483 c 4
EndSplineSet
Layer: 3
EndChar
StartChar: o
Encoding: 111 111 53
Width: 498
VWidth: 0
Flags: W
HStem: -6 66<180.804 317.196> 417 66<180.804 316.99>
VStem: 54 70<120.972 355.551> 374 70<120.972 356.428>
AnchorPoint: "Center" 4 0 basechar 0
AnchorPoint: "Bottom" 249 0 basechar 0
AnchorPoint: "Top" 249 546 basechar 0
LayerCount: 4
Back
Fore
SplineSet
249 483 m 0
 345 483 444 417 444 273 c 2
 444 204 l 2
 444 61 346 -6 249 -6 c 0
 152 -6 54 61 54 204 c 2
 54 272 l 2
 54 416 152 483 249 483 c 0
249 417 m 0
 187 417 124 371 124 273 c 2
 124 204 l 2
 124 106 187 60 249 60 c 0
 311 60 374 106 374 204 c 2
 374 272 l 2
 374 371 311 417 249 417 c 0
EndSplineSet
Layer: 2
Layer: 3
EndChar
StartChar: p
Encoding: 112 112 63
Width: 512
VWidth: 0
Flags: W
HStem: -6 66<193.335 331.316> 417 66<193.335 331.316>
VStem: 70 68<-185 59 118.213 358.524 418 477> 388 70<120.972 355.551>
LayerCount: 4
Back
Fore
SplineSet
138 477 m 1
 138 418 l 1
 170 462 219 483 273 483 c 0
 370 483 458 416 458 272 c 2
 458 204 l 2
 458 61 370 -6 273 -6 c 0
 219 -6 170 15 138 59 c 1
 138 -185 l 1
 70 -185 l 1
 70 477 l 1
 138 477 l 1
263 417 m 0
 201 417 138 371 138 272 c 2
 138 204 l 2
 138 106 201 60 263 60 c 0
 325 60 388 106 388 204 c 2
 388 273 l 2
 388 371 325 417 263 417 c 0
EndSplineSet
Layer: 2
Layer: 3
EndChar
StartChar: q
Encoding: 320 113 64
Width: 513
VWidth: 0
Flags: W
HStem: -6 66<176.684 314.665> 417 66<176.684 314.665>
VStem: 50 70<120.972 355.551> 370 68<-185 59 118.213 358.524 418 477>
LayerCount: 4
Back
Fore
SplineSet
370 477 m 1
 438 477 l 1
 438 -185 l 1
 370 -185 l 1
 370 59 l 1
 338 15 289 -6 235 -6 c 0
 138 -6 50 61 50 204 c 2
 50 272 l 2
 50 416 138 483 235 483 c 0
 289 483 338 462 370 418 c 1
 370 477 l 1
245 417 m 0
 183 417 120 371 120 273 c 2
 120 204 l 2
 120 106 183 60 245 60 c 0
 307 60 370 106 370 204 c 2
 370 272 l 2
 370 371 307 417 245 417 c 0
EndSplineSet
Validated: 1
Layer: 2
Layer: 3
EndChar
StartChar: r
Encoding: 114 114 62
Width: 368
VWidth: 0
Flags: W
HStem: 0 21G<70 138> 418 65<194.774 319.739>
VStem: 70 68<0 357.312 418 477>
AnchorPoint: "Center" 0 0 basechar 0
AnchorPoint: "Bottom" 106 0 basechar 0
AnchorPoint: "Top" 205 546 basechar 0
LayerCount: 4
Back
SplineSet
70 477 m 1
 138 477 l 1
 138 0 l 1
 70 0 l 1
 70 477 l 1
318 415 m 0
 196.166992188 415 138.248046875 371.44140625 138.000976562 273.078125 c 5
 108 272.5 l 5
 108.000976562 416.37109375 161.350585938 481 318 481 c 0
 318 415 l 0
EndSplineSet
Fore
SplineSet
70 477 m 1
 138 477 l 1
 138 418 l 1
 170 462 219 483 273 483 c 0
 303 483 317 479 328 476 c 1
 318 414 l 1
 307 416 292 418 263 418 c 0
 197 418 138 367 138 273 c 2
 138 0 l 1
 70 0 l 1
 70 477 l 1
EndSplineSet
Layer: 2
SplineSet
318 414 m 5
 307 416 292 418 263 418 c 4
 197 418 138 367 138 273 c 13
 98 272 l 21
 98 416 176 483 273 483 c 4
 303 483 317 479 328 476 c 5
 318 414 l 5
70 477 m 5
 138 477 l 5
 138 0 l 5
 70 0 l 5
 70 477 l 5
EndSplineSet
Layer: 3
EndChar
StartChar: s
Encoding: 115 115 48
Width: 441
VWidth: 0
Flags: W
HStem: -6 65<123.404 295.279> 418 65<143.867 306.42>
VStem: 51 70<303.738 395.448> 317 70<82.2751 178.444>
AnchorPoint: "Center" -4 0 basechar 0
AnchorPoint: "Bottom" 214 0 basechar 0
AnchorPoint: "Top" 214 546 basechar 0
LayerCount: 4
Back
SplineSet
214 483 m 0
 320.4609375 483 458.615234375 416.630859375 458.999023438 273.341796875 c 2
 459 204.5 l 2
 458.999023438 60.62890625 320.649414062 -6 214 -6 c 0
 107.350585938 -6 -30.9990234375 60.62890625 -31 204.5 c 2
 -31 272.5 l 2
 -30.9990234375 416.37109375 107.350585938 483 214 483 c 0
214 417 m 0
 142.166992188 417 39.248046875 371.44140625 39.0009765625 273.078125 c 2
 39 204.5 l 2
 39.0009765625 105.73828125 142.044921875 60 214 60 c 0
 285.833007812 60 388.751953125 105.55859375 388.999023438 203.921875 c 2
 389 272.5 l 2
 388.999023438 371.26171875 285.955078125 417 214 417 c 0
EndSplineSet
Fore
SplineSet
214 483 m 0
 290 483 347 452 372 435 c 1
 334 380 l 1
 299 406 252 418 214 418 c 0
 159 418 121 391 121 349 c 0
 121 310 143 291 220 277 c 0
 303 261 387 225 387 132 c 0
 387 45 315 -6 213 -6 c 4
 128 -6 69 32 48 48 c 5
 90 101 l 5
 119 78 166 59 213 59 c 4
 291 59 317 90 317 132 c 0
 317 173 284 198 208 212 c 0
 125 227 51 258 51 349 c 0
 51 440 141 483 214 483 c 0
EndSplineSet
Layer: 2
Layer: 3
EndChar
StartChar: t
Encoding: 116 116 65
Width: 360
VWidth: 0
Flags: W
HStem: 0 66<196.654 315> 415 62<45 115 185 295>
VStem: 115 70<78.4111 415 477 581>
AnchorPoint: "Top" 5 0 basechar 0
AnchorPoint: "Center" 5 0 basechar 0
AnchorPoint: "Bottom" 224 0 basechar 0
LayerCount: 4
Back
Fore
SplineSet
45 477 m 5
 115 477 l 1
 115 581 l 1
 185 581 l 1
 185 477 l 1
 295 477 l 1
 295 415 l 1
 185 415 l 1
 185 130 l 2
 185 85 210 66 235 66 c 2
 315 66 l 1
 315 0 l 1
 235 0 l 2
 176 0 115 41 115 130 c 2
 115 415 l 1
 45 415 l 5
 45 477 l 5
EndSplineSet
Layer: 2
Layer: 3
EndChar
StartChar: u
Encoding: 117 117 66
Width: 504
VWidth: 0
Flags: W
HStem: -6 66<184.998 318.796>
VStem: 62 70<115.862 477> 372 70<115.45 477>
AnchorPoint: "Center" -3 0 basechar 0
AnchorPoint: "Bottom" 252 0 basechar 0
AnchorPoint: "Top" 252 546 basechar 0
LayerCount: 4
Back
Fore
SplineSet
62 477 m 1
 132 477 l 25
 132 204 l 2
 132 106 190 60 252 60 c 0
 314 60 372 106 372 204 c 2
 372 477 l 1
 442 477 l 25
 442 204 l 2
 442 60 348 -6 252 -6 c 0
 155 -6 62 61 62 204 c 2
 62 477 l 1
EndSplineSet
Layer: 2
Layer: 3
EndChar
StartChar: v
Encoding: 301 118 45
Width: 497
Flags: W
HStem: 0 21G<210.117 286.883>
AnchorPoint: "Bottom" 0 0 basechar 0
AnchorPoint: "Center" 0 0 basechar 0
AnchorPoint: "Top" 248.5 546 basechar 0
LayerCount: 4
Back
Fore
SplineSet
30 477 m 1
 104 477 l 1
 249 90 l 1
 393 477 l 1
 467 477 l 1
 279 0 l 1
 218 0 l 1
 30 477 l 1
EndSplineSet
Validated: 1
Layer: 2
Layer: 3
EndChar
StartChar: w
Encoding: 300 119 44
Width: 720
Flags: W
HStem: 0 21G<182.333 254.678 466.271 538.625>
AnchorPoint: "Bottom" 0 0 basechar 0
AnchorPoint: "Center" 0 0 basechar 0
AnchorPoint: "Top" 358 546 basechar 0
LayerCount: 4
Back
Fore
SplineSet
30 477 m 1
 101 477 l 1
 219 103 l 1
 330 477 l 1
 390 477 l 1
 502 103 l 1
 619 477 l 1
 690 477 l 1
 532 0 l 1
 472 0 l 1
 360 391 l 1
 249 0 l 1
 189 0 l 1
 30 477 l 1
EndSplineSet
Validated: 1
Layer: 2
Layer: 3
EndChar
StartChar: x
Encoding: 120 120 69
Width: 454
VWidth: 0
Flags: W
HStem: 0 21G<40 128.518 323.691 414>
LayerCount: 4
Back
Fore
SplineSet
40 477 m 1
 119 477 l 1
 227 286 l 1
 337 477 l 1
 414 477 l 1
 269 238 l 1
 414 0 l 1
 335 0 l 1
 227 191 l 1
 117 0 l 1
 40 0 l 1
 185 238 l 1
 40 477 l 1
EndSplineSet
Layer: 2
Layer: 3
EndChar
StartChar: y
Encoding: 326 121 70
Width: 520
VWidth: 0
Flags: W
AnchorPoint: "Bottom" 0 0 basechar 0
AnchorPoint: "Center" 0 0 basechar 0
AnchorPoint: "Top" 260 546 basechar 0
LayerCount: 4
Back
Fore
SplineSet
30 477 m 1
 104 477 l 1
 260 81 l 1
 416 477 l 1
 490 477 l 1
 222 -185 l 1
 149 -185 l 1
 223 0 l 1
 30 477 l 1
EndSplineSet
Validated: 1
Layer: 2
Layer: 3
EndChar
StartChar: z
Encoding: 122 122 71
Width: 428
VWidth: 0
Flags: W
HStem: 0 66<140 374> 411 66<54 288>
VStem: 54 320<0 50 427 477>
AnchorPoint: "Center" 9 0 basechar 0
AnchorPoint: "Bottom" 216 0 basechar 0
AnchorPoint: "Top" 214 546 basechar 0
LayerCount: 4
Back
Fore
SplineSet
54 477 m 1
 374 477 l 1
 374 427 l 1
 140 66 l 1
 374 66 l 1
 374 0 l 1
 54 0 l 1
 54 50 l 1
 288 411 l 1
 54 411 l 1
 54 477 l 1
EndSplineSet
Layer: 2
Layer: 3
EndChar
StartChar: braceleft
Encoding: 123 123 76
Width: 329
VWidth: 0
Flags: W
HStem: -130 56<209.363 274> 318 50<50 106.302> 741 56<209.363 274>
VStem: 130 62<-56.4327 294.5 387 723.433>
LayerCount: 4
Back
SplineSet
274 -74 m 5
 260 -74 l 6
 210 -74 192 -44 192 20 c 6
 192 213 l 6
 192 322 113 368 54 368 c 6
 50 368 l 5
 50 318 l 5
 54 318 l 6
 99 318 130 287 130 223 c 6
 130 20 l 6
 130 -89 181 -130 260 -130 c 6
 274 -130 l 5
 274 -74 l 5
274 797 m 5
 260 797 l 6
 181 797 130 756 130 647 c 6
 130 453 l 6
 130 389 99 368 54 368 c 6
 50 368 l 5
 50 318 l 5
 54 318 l 6
 113 318 192 354 192 463 c 6
 192 647 l 6
 192 711 210 741 260 741 c 6
 274 741 l 5
 274 797 l 5
EndSplineSet
Fore
SplineSet
274 797 m 1
 274 741 l 1
 260 741 l 2
 210 741 192 711 192 647 c 2
 192 463 l 2
 192 401 166 363 133 341 c 1
 166 317 192 275 192 213 c 2
 192 20 l 2
 192 -44 210 -74 260 -74 c 2
 274 -74 l 1
 274 -130 l 1
 260 -130 l 2
 181 -130 130 -89 130 20 c 2
 130 223 l 2
 130 287 99 318 54 318 c 2
 50 318 l 1
 50 368 l 1
 54 368 l 2
 99 368 130 389 130 453 c 2
 130 647 l 2
 130 756 181 797 260 797 c 2
 274 797 l 1
EndSplineSet
Validated: 1
Layer: 2
Layer: 3
EndChar
StartChar: bar
Encoding: 333 124 77
Width: 222
VWidth: 0
Flags: W
VStem: 80 62<-130 797>
LayerCount: 4
Back
Fore
SplineSet
80 797 m 1
 142 797 l 1
 142 -130 l 1
 80 -130 l 1
 80 797 l 1
EndSplineSet
Validated: 1
Layer: 2
Layer: 3
EndChar
StartChar: braceright
Encoding: 125 125 79
Width: 329
VWidth: 0
Flags: W
HStem: -130 56<55 119.637> 318 50<222.698 279> 741 56<55 119.637>
VStem: 137 62<-56.4327 294.5 387 723.433>
LayerCount: 4
Back
Fore
SplineSet
55 797 m 1
 69 797 l 2
 148 797 199 756 199 647 c 2
 199 453 l 2
 199 389 230 368 275 368 c 2
 279 368 l 1
 279 318 l 1
 275 318 l 2
 230 318 199 287 199 223 c 2
 199 20 l 2
 199 -89 148 -130 69 -130 c 2
 55 -130 l 1
 55 -74 l 1
 69 -74 l 2
 119 -74 137 -44 137 20 c 2
 137 213 l 2
 137 275 163 317 196 341 c 1
 163 363 137 401 137 463 c 2
 137 647 l 2
 137 711 119 741 69 741 c 2
 55 741 l 1
 55 797 l 1
EndSplineSet
Validated: 1
Layer: 2
Layer: 3
EndChar
StartChar: asciitilde
Encoding: 436 126 180
Width: 672
VWidth: 0
Flags: W
HStem: 184 65<371.476 501.239> 249 66<166.642 308.012>
LayerCount: 4
Back
SplineSet
141 209 m 5
 100 261 l 5
 192 335 283 325 356 280 c 4
 423 238 462 237 532 293 c 5
 573 241 l 5
 482 169 402 169 317 222 c 4
 261 257 208 263 141 209 c 5
EndSplineSet
Fore
SplineSet
141 209 m 1x40
 100 261 l 1
 148 299 195 315 240 315 c 0x40
 282 315 321 302 356 280 c 0
 387 260 413 249 438 249 c 0
 466 249 495 263 532 293 c 1
 573 241 l 1
 524 202 478 184 433 184 c 0x80
 394 184 356 198 317 222 c 0
 290 239 264 249 237 249 c 0
 207 249 176 237 141 209 c 1x40
EndSplineSet
Validated: 1
Layer: 2
SplineSet
66.2783203125 100 m 21
 166.278320312 180 256.28125 169.998046875 336.278320312 120 c 4
 431.087890625 60.744140625 506.278320312 60 606.278320312 140 c 1028
EndSplineSet
Layer: 3
EndChar
StartChar: exclamdown
Encoding: 347 161 91
Width: 212
VWidth: 0
Flags: W
HStem: 386 102<63.2266 148.773>
VStem: 55 102<394.227 479.773> 68 74<-185 229.1> 78 54<131.9 302>
LayerCount: 4
Back
Fore
SplineSet
106 488 m 0xc0
 136 488 157 467 157 437 c 0
 157 407 136 386 106 386 c 0
 76 386 55 407 55 437 c 0
 55 467 76 488 106 488 c 0xc0
78 302 m 1x90
 132 302 l 1x90
 142 59 l 1
 142 -185 l 1
 68 -185 l 1
 68 59 l 1xa0
 78 302 l 1x90
EndSplineSet
Validated: 1
Layer: 2
Layer: 3
EndChar
StartChar: yen
Encoding: 165 165 361
Width: 521
VWidth: 0
Flags: W
HStem: 0 21G<223 297> 243 56<80 218 302 440> 368 56<70 148 372 450> 647 20G<25 115.968 406.838 496>
VStem: 223 74<0 243>
LayerCount: 4
Back
Fore
SplineSet
25 667 m 1
 106 667 l 1
 260 358 l 1
 417 667 l 1
 496 667 l 1
 372 424 l 1
 450 424 l 1
 450 368 l 1
 337 368 l 1
 302 299 l 1
 440 299 l 1
 440 243 l 1
 297 243 l 1
 297 0 l 1
 223 0 l 1
 223 243 l 1
 80 243 l 1
 80 299 l 1
 218 299 l 1
 183 368 l 1
 70 368 l 1
 70 424 l 1
 148 424 l 1
 25 667 l 1
EndSplineSet
Validated: 1
Layer: 2
Layer: 3
EndChar
StartChar: brokenbar
Encoding: 166 166 362
Width: 222
VWidth: 0
Flags: W
HStem: 0 21G<80 142> 647 20G<80 142>
VStem: 80 62<0 264 404 667>
LayerCount: 4
Back
Fore
SplineSet
80 264 m 1
 142 264 l 1
 142 0 l 1
 80 0 l 1
 80 264 l 1
80 667 m 1
 142 667 l 1
 142 404 l 1
 80 404 l 1
 80 667 l 1
EndSplineSet
Validated: 1
Layer: 2
Layer: 3
EndChar
StartChar: section
Encoding: 371 167 115
Width: 441
VWidth: 0
Flags: W
HStem: -6 66<120.162 300.274> 607 66<150.869 321.605>
VStem: 45 70<304.844 423.286> 55 70<493.831 581.705> 321 70<81.4645 168.54> 331 70<245.401 358.058>
LayerCount: 4
Back
SplineSet
258 188 m 4xf5
 360 188 401 227 401 312 c 4
 401 401 307 457 224 473 c 4
 147 487 125 494 125 537 c 4
 125 578 166 607 218 607 c 4
 254 607 290 606 347 571 c 5
 379 629 l 5
 309 671 258 673 218 673 c 4
 145 673 55 631 55 537 c 4
 55 445 129 423 212 408 c 4
 288 394 331 347 331 312 c 4
 331 273 338 234 258 234 c 4
 258 188 l 4xf5
178 482 m 4
 105 482 45 451 45 357 c 4
 45 265 129 213 212 198 c 4
 288 184 321 165 321 130 c 4
 321 91 298 60 218 60 c 4
 189 60 143 61 82 104 c 5
 45 50 l 5
 120 -2 183 -6 218 -6 c 4
 320 -6 391 45 391 130 c 4
 391 219 307 247 224 263 c 4
 147 277 115 314 115 357 c 4xfa
 115 398 126 436 178 436 c 4
 178 482 l 4
EndSplineSet
Fore
SplineSet
212 408 m 0xe4
 186 413 162 418 140 426 c 1
 120 412 115 385 115 357 c 0
 115 314 147 277 224 263 c 0
 252 258 279 251 304 241 c 1
 331 259 331 283 331 312 c 0
 331 347 288 394 212 408 c 0xe4
218 673 m 0
 258 673 309 671 379 629 c 1
 347 571 l 1
 290 606 254 607 218 607 c 0
 166 607 125 578 125 537 c 0
 125 494 147 487 224 473 c 0
 307 457 401 401 401 312 c 0xd4
 401 263 388 230 357 210 c 1
 378 191 391 165 391 130 c 0
 391 45 320 -6 218 -6 c 0
 183 -6 120 -2 45 50 c 1
 82 104 l 1
 143 61 189 60 218 60 c 0
 298 60 321 91 321 130 c 0
 321 165 288 184 212 198 c 0
 129 213 45 265 45 357 c 0xe8
 45 405 61 437 86 456 c 1
 67 475 55 500 55 537 c 0xd0
 55 631 145 673 218 673 c 0
EndSplineSet
Validated: 1
Layer: 2
Layer: 3
EndChar
StartChar: dieresis
Encoding: 387 168 131
Width: 434
VWidth: 0
Flags: W
HStem: 511 94<86.3292 167.671 266.329 347.671>
VStem: 80 94<517.329 598.671> 260 94<517.329 598.671>
AnchorPoint: "Top" 217 517 mark 0
LayerCount: 4
Back
Fore
SplineSet
307 605 m 0
 335 605 354 586 354 558 c 0
 354 530 335 511 307 511 c 0
 279 511 260 530 260 558 c 0
 260 586 279 605 307 605 c 0
127 605 m 0
 155 605 174 586 174 558 c 0
 174 530 155 511 127 511 c 0
 99 511 80 530 80 558 c 0
 80 586 99 605 127 605 c 0
EndSplineSet
Validated: 1
Layer: 2
Layer: 3
EndChar
StartChar: copyright
Encoding: 330 169 74
Width: 600
VWidth: 0
Flags: W
HStem: -6 60<193.732 406.268> 124 61<242.964 367.049> 482 61<242.964 365.382> 613 60<191.817 408.183>
VStem: 45 64<134.415 532.933> 161 63<202.493 464.507> 491 64<134.415 532.933>
LayerCount: 4
Back
Fore
SplineSet
300 613 m 0
 190 613 109 563 109 446 c 2
 109 222 l 2
 109 104 190 54 300 54 c 0
 410 54 491 104 491 222 c 2
 491 446 l 2
 491 563 410 613 300 613 c 0
300 673 m 0
 447 673 555 611 555 446 c 2
 555 222 l 2
 555 56 447 -6 300 -6 c 0
 153 -6 45 56 45 222 c 2
 45 446 l 2
 45 611 153 673 300 673 c 0
299 543 m 0
 323 543 377 543 419 488 c 1
 372 453 l 1
 352 482 320 482 299 482 c 0
 260 482 224 465 224 403 c 2
 224 264 l 2
 224 202 260 185 299 185 c 0
 321 185 350 187 380 217 c 1
 423 182 l 1
 379 124 324 124 299 124 c 0
 227 124 161 162 161 264 c 2
 161 403 l 2
 161 505 227 543 299 543 c 0
EndSplineSet
Validated: 1
Layer: 2
Layer: 3
EndChar
StartChar: guillemotleft
Encoding: 385 171 129
Width: 550
Flags: W
LayerCount: 4
Back
Fore
SplineSet
398 438 m 1
 470 438 l 1
 316 251 l 1
 470 64 l 1
 403 64 l 1
 255 238 l 1
 255 264 l 1
 398 438 l 1
223 438 m 1
 295 438 l 1
 141 251 l 1
 295 64 l 1
 228 64 l 1
 80 238 l 1
 80 264 l 1
 223 438 l 1
EndSplineSet
Validated: 1
Layer: 2
Layer: 3
EndChar
StartChar: registered
Encoding: 331 174 75
Width: 600
VWidth: 0
Flags: W
HStem: -6 60<193.732 406.268> 277 58<245 308> 481 58<245 358.359> 613 60<191.817 408.183>
VStem: 45 64<134.415 532.933> 184 61<128 277 335 481> 376 56<352.448 464.228> 491 64<134.415 532.933>
LayerCount: 4
Back
Fore
SplineSet
245 481 m 1
 245 335 l 1
 309 335 l 2
 341 335 376 357 376 410 c 0
 376 460 342 481 309 481 c 2
 245 481 l 1
184 539 m 1
 309 539 l 2
 374 539 432 498 432 410 c 0
 432 350 404 307 366 289 c 1
 439 128 l 1
 376 128 l 1
 308 277 l 1
 245 277 l 1
 245 128 l 1
 184 128 l 1
 184 539 l 1
300 673 m 0
 447 673 555 611 555 446 c 2
 555 222 l 2
 555 56 447 -6 300 -6 c 0
 153 -6 45 56 45 222 c 2
 45 446 l 2
 45 611 153 673 300 673 c 0
300 613 m 0
 190 613 109 563 109 446 c 2
 109 222 l 2
 109 104 190 54 300 54 c 0
 410 54 491 104 491 222 c 2
 491 446 l 2
 491 563 410 613 300 613 c 0
EndSplineSet
Validated: 1
Layer: 2
Layer: 3
EndChar
StartChar: macron
Encoding: 175 175 195
Width: 450
Flags: W
HStem: 518 56<90 360>
VStem: 90 270<518 574>
AnchorPoint: "Top" 226 517 mark 0
LayerCount: 4
Back
Fore
SplineSet
90 574 m 1
 360 574 l 1
 360 518 l 1
 90 518 l 1
 90 574 l 1
EndSplineSet
Validated: 1
Layer: 2
Layer: 3
EndChar
StartChar: degree
Encoding: 407 176 151
Width: 404
VWidth: 0
Flags: W
HStem: 449 54<155.999 248.156> 619 54<155.999 248.156>
VStem: 90 54<514.844 607.156> 260 54<514.844 607.156>
LayerCount: 4
Back
Fore
SplineSet
202 673 m 0
 269 673 314 628 314 561 c 0
 314 494 269 449 202 449 c 0
 135 449 90 494 90 561 c 0
 90 628 135 673 202 673 c 0
202 619 m 0
 168 619 144 596 144 561 c 0
 144 526 168 503 202 503 c 0
 237 503 260 526 260 561 c 0
 260 596 237 619 202 619 c 0
EndSplineSet
Validated: 1
Layer: 2
Layer: 3
EndChar
StartChar: plusminus
Encoding: 361 177 105
Width: 480
Flags: W
HStem: 95 56<80 400> 293 56<80 210 270 400>
VStem: 210 60<201 293 349 441>
LayerCount: 4
Back
Fore
SplineSet
210 441 m 1
 270 441 l 1
 270 349 l 1
 400 349 l 1
 400 293 l 1
 270 293 l 1
 270 201 l 1
 210 201 l 1
 210 293 l 1
 80 293 l 1
 80 349 l 1
 210 349 l 1
 210 441 l 1
80 151 m 1
 400 151 l 1
 400 95 l 1
 80 95 l 1
 80 151 l 1
EndSplineSet
Validated: 1
Layer: 2
Layer: 3
EndChar
StartChar: acute
Encoding: 180 180 169
Width: 416
Flags: W
HStem: 456 211
VStem: 90 236
LayerCount: 4
Back
Fore
SplineSet
244 667 m 1
 326 667 l 1
 161 456 l 1
 90 456 l 1
 244 667 l 1
EndSplineSet
Validated: 1
Layer: 2
Layer: 3
EndChar
StartChar: mu
Encoding: 181 181 123
Width: 555
VWidth: 0
Flags: W
HStem: -6 66<192.057 327.92 461.715 510>
VStem: 70 70<-185 55 115.371 477> 380 70<115.865 477>
LayerCount: 4
Back
SplineSet
140 204 m 5
 140 106 198 60 260 60 c 4
 322 60 380 106 380 204 c 6
 380 477 l 5
 450 477 l 29
 430 204 l 21
 430 60 356 -6 260 -6 c 4
 173 -6 100 61 100 204 c 5
 140 204 l 5
140 477 m 5
 140 -185 l 5
 70 -185 l 5
 70 477 l 5
 140 477 l 5
390 124 m 5
 391 124 l 5
 450 477 l 5
 450 124 l 6
 450 79 475 60 500 60 c 6
 510 60 l 5
 510 -6 l 5
 500 -6 l 6
 441 -6 390 35 390 124 c 5
EndSplineSet
Fore
SplineSet
70 477 m 1
 140 477 l 1
 140 204 l 2
 140 106 198 60 260 60 c 0
 322 60 380 106 380 204 c 2
 380 477 l 1
 450 477 l 1
 450 124 l 2
 450 79 475 60 500 60 c 2
 510 60 l 1
 510 -6 l 1
 500 -6 l 2
 455 -6 415 18 398 68 c 1
 368 18 318 -6 260 -6 c 0
 213 -6 170 14 140 55 c 1
 140 -185 l 1
 70 -185 l 1
 70 477 l 1
EndSplineSet
Validated: 1
Layer: 2
Layer: 3
EndChar
StartChar: periodcentered
Encoding: 356 183 100
Width: 214
VWidth: 0
Flags: W
HStem: 199 102<63.2266 148.773>
VStem: 55 102<207.227 292.773>
AnchorPoint: "Center" 107 250 mark 0
LayerCount: 4
Back
Fore
SplineSet
106 301 m 0
 136 301 157 280 157 250 c 0
 157 220 136 199 106 199 c 0
 76 199 55 220 55 250 c 0
 55 280 76 301 106 301 c 0
EndSplineSet
Validated: 1
Layer: 2
Layer: 3
EndChar
StartChar: cedilla
Encoding: 446 184 190
Width: 422
Flags: W
HStem: -200 55<99.1003 260.94>
VStem: 264 58<-138.403 -84.8355>
AnchorPoint: "Bottom" 224.286 0 mark 0
LayerCount: 4
Back
SplineSet
197 0 m 5xd0
 251 0 l 5
 211 -79 l 5xd0
 157 -79 l 5xb0
 197 0 l 5xd0
107 -140 m 5
 128 -147 148 -151 187 -151 c 4
 232 -151 264 -144 264 -116 c 4
 264 -86 231 -79 197 -79 c 5xd0
 197 -45 l 5xb0
 274 -45 322 -62 322 -116 c 4
 322 -179 274 -206 187 -206 c 4
 135 -206 107 -201 80 -191 c 5
 107 -140 l 5
EndSplineSet
Fore
SplineSet
107 -134 m 1
 128 -141 148 -145 187 -145 c 0
 232 -145 264 -141 264 -113 c 0
 264 -83 231 -79 197 -79 c 2
 157 -79 l 1
 203 12 l 1
 251 0 l 1
 228 -46 l 1
 287 -51 322 -67 322 -113 c 0
 322 -176 274 -200 187 -200 c 0
 135 -200 107 -195 80 -185 c 1
 107 -134 l 1
EndSplineSet
Validated: 1
Layer: 2
Layer: 3
EndChar
StartChar: guillemotright
Encoding: 384 187 128
Width: 550
Flags: W
LayerCount: 4
Back
Fore
SplineSet
234 251 m 1
 80 438 l 1
 152 438 l 1
 295 264 l 1
 295 238 l 1
 147 64 l 1
 80 64 l 1
 234 251 l 1
409 251 m 1
 255 438 l 1
 327 438 l 1
 470 264 l 1
 470 238 l 1
 322 64 l 1
 255 64 l 1
 409 251 l 1
EndSplineSet
Validated: 1
Layer: 2
Layer: 3
EndChar
StartChar: onequarter
Encoding: 623 188 367
Width: 704
VWidth: 0
Flags: W
HStem: -6 60<482.867 571.133> 237 60<482.867 571.133> 370 60<132.867 221.133> 613 60<132.867 221.133>
VStem: 56 62<445.242 597.758> 236 62<445.242 597.758> 406 62<69.2419 221.758> 586 62<69.2419 221.758>
LayerCount: 4
Back
Fore
SplineSet
177 613 m 0
 149 613 118 592 118 545 c 2
 118 498 l 2
 118 451 149 430 177 430 c 0
 205 430 236 451 236 498 c 2
 236 545 l 2
 236 592 205 613 177 613 c 0
177 673 m 0
 237 673 298 632 298 543 c 2
 298 500 l 2
 298 411 237 370 177 370 c 0
 117 370 56 411 56 500 c 2
 56 543 l 2
 56 632 117 673 177 673 c 0
492 667 m 1
 566 667 l 1
 206 0 l 1
 132 0 l 1
 492 667 l 1
527 237 m 0
 499 237 468 216 468 169 c 2
 468 122 l 2
 468 75 499 54 527 54 c 0
 555 54 586 75 586 122 c 2
 586 169 l 2
 586 216 555 237 527 237 c 0
527 297 m 0
 587 297 648 256 648 167 c 2
 648 124 l 2
 648 35 587 -6 527 -6 c 0
 467 -6 406 35 406 124 c 2
 406 167 l 2
 406 256 467 297 527 297 c 0
EndSplineSet
Validated: 1
Layer: 2
Layer: 3
EndChar
StartChar: onehalf
Encoding: 189 189 364
Width: 704
VWidth: 0
Flags: W
HStem: -0 58<521 619> 237 59<472.596 551.343> 647 20G<122.476 214 481.205 566>
VStem: 152 62<376 597> 553 60<167.253 235.427>
LayerCount: 4
Back
Fore
SplineSet
492 667 m 5
 566 667 l 5
 206 0 l 5
 132 0 l 5
 492 667 l 5
162 667 m 5
 214 667 l 5
 214 376 l 5
 152 376 l 5
 152 597 l 5
 106 573 l 5
 79 625 l 5
 162 667 l 5
523 237 m 4
 508.016475973 237 492.281148123 225.04153083 478 206 c 5
 431 241 l 5
 440 255 l 5
 471 295 511 296 525 296 c 4
 578 296 613 253 613 208 c 4
 613 193 609 170 585 139 c 6
 521 58 l 5
 619 58 l 5
 619 -0 l 5
 432 -0 l 5
 432 40 l 5
 433 40 l 5
 434 42 l 5
 469 87 504 131 539 176 c 4
 548 188 553 196 553 208 c 4
 553 223 542 237 523 237 c 4
EndSplineSet
Layer: 2
Layer: 3
EndChar
StartChar: threequarters
Encoding: 190 190 365
Width: 704
VWidth: 0
Flags: W
HStem: 0 21G<132 216.795 531 589> 68 57<487 531 589 612> 369 59<137.698 211.311> 496 58<137 207.774> 615 59<125.354 207.852> 647 20G<481.205 566>
VStem: 213 60<430.216 494.007 556.831 611.12> 531 58<0 68 125 173>
LayerCount: 4
Back
Fore
SplineSet
492 667 m 1xf7
 566 667 l 1
 206 0 l 1
 132 0 l 1
 492 667 l 1xf7
501 299 m 5
 564 299 l 5
 487 125 l 5
 531 125 l 5
 531 173 l 5
 589 173 l 5
 589 125 l 5
 612 125 l 5
 612 68 l 5
 589 68 l 5
 589 0 l 5
 531 0 l 5
 531 68 l 5
 416 68 l 5
 416 106 l 5
 501 299 l 5
179 674 m 0xfb
 234 674 270 631 270 585 c 0
 270 561 259 539 247 526 c 1
 264 509 273 487 273 461 c 0
 273 413 236 369 179 369 c 0
 164 369 123 369 90 413 c 2
 81 425 l 1
 128 461 l 1
 138 449 l 1
 152 429 165 428 176 428 c 0
 201 428 213 440 213 461 c 0
 213 478 203 496 179 496 c 2
 137 496 l 1
 137 554 l 1
 179 554 l 2
 197 554 209 568 209 585 c 0
 209 601 196 615 177 615 c 0
 166 615 154 615 140 596 c 2
 131 584 l 1
 84 620 l 1
 93 632 l 2
 124 674 165 674 179 674 c 0xfb
EndSplineSet
Layer: 2
Layer: 3
EndChar
StartChar: questiondown
Encoding: 348 191 92
Width: 564
VWidth: 0
Flags: W
HStem: -191 70<197.765 362.697> 386 102<224.227 309.773>
VStem: 77 74<-75.1082 60.2373> 216 102<394.227 479.773> 237 62<192.021 301.973>
LayerCount: 4
Back
Fore
SplineSet
297 302 m 29xe8
 297 302 299 265 299 245 c 4
 299 181 271 133 210 93 c 4
 176 71 151 42 151 -8 c 4
 151 -78 206 -121 271 -121 c 4
 315 -121 367 -111 401 -65 c 5
 459 -109 l 5
 412 -176 329 -191 271 -191 c 4
 170 -191 77 -121 77 -8 c 4
 77 62 111 113 162 145 c 4
 213 177 235 206 237 256 c 6
 239 302 l 13
 297 302 l 29xe8
267 386 m 4
 237 386 216 407 216 437 c 4
 216 467 237 488 267 488 c 4
 297 488 318 467 318 437 c 4xf0
 318 407 297 386 267 386 c 4
EndSplineSet
Layer: 2
Layer: 3
EndChar
StartChar: AE
Encoding: 198 198 41
Width: 809
Flags: HW
HStem: 0 69<498 732> 165 70<242 427> 308 69<498 699> 597 70<498 722>
VStem: 427 71<69 165 235 308 377 588>
LayerCount: 4
Back
Fore
SplineSet
119 0 m 1
 40 0 l 1
 394 667 l 1
 722 667 l 1
 722 597 l 1
 498 597 l 1
 498 377 l 1
 699 377 l 1
 699 308 l 1
 498 308 l 1
 498 69 l 1
 732 69 l 1
 732 0 l 1
 427 0 l 1
 427 165 l 1
 206 165 l 1
 119 0 l 1
427 588 m 1
 242 235 l 1
 427 235 l 1
 427 588 l 1
EndSplineSet
Layer: 2
Layer: 3
EndChar
StartChar: Eth
Encoding: 208 208 366
Width: 574
VWidth: 0
Flags: W
HStem: 0 70<154 367.672> 313 60<8 80 154 281> 597 70<154 367.672>
VStem: 80 74<70 313 373 597> 435 74<139.365 528.141>
LayerCount: 4
Back
SplineSet
8 373 m 5
 281 373 l 5
 281 313 l 5
 8 313 l 5
 8 373 l 5
154 597 m 5
 154 70 l 5
 274 70 l 22
 364 70 435 110 435 228 c 6
 435 440 l 6
 435 557 364 597 274 597 c 14
 154 597 l 5
80 667 m 5
 274 667 l 6
 401 667 509 605 509 440 c 6
 509 228 l 6
 509 62 401 0 274 0 c 14
 80 0 l 5
 80 667 l 5
EndSplineSet
Fore
SplineSet
80 667 m 1
 274 667 l 2
 401 667 509 605 509 440 c 2
 509 228 l 2
 509 62 401 0 274 0 c 2
 80 0 l 1
 80 313 l 1
 8 313 l 1
 8 373 l 1
 80 373 l 1
 80 667 l 1
154 313 m 1
 154 70 l 1
 274 70 l 2
 364 70 435 110 435 228 c 2
 435 440 l 2
 435 557 364 597 274 597 c 2
 154 597 l 1
 154 373 l 1
 281 373 l 1
 281 313 l 1
 154 313 l 1
EndSplineSet
Validated: 1
Layer: 2
Layer: 3
EndChar
StartChar: multiply
Encoding: 215 215 367
Width: 520
Flags: W
HStem: 103 296
VStem: 113 294
LayerCount: 4
Back
Fore
SplineSet
154 399 m 1
 261 292 l 1
 367 398 l 1
 407 358 l 1
 301 252 l 1
 408 145 l 1
 366 103 l 1
 259 210 l 1
 153 103 l 1
 113 144 l 1
 219 250 l 1
 113 357 l 1
 154 399 l 1
EndSplineSet
Validated: 1
Layer: 2
Layer: 3
EndChar
StartChar: Oslash
Encoding: 216 216 42
Width: 601
VWidth: 0
Flags: W
HStem: -6 67<202.652 395.149> 606 67<204.851 396.541>
VStem: 65 72<141.114 540.002> 463 72<127.553 525.619>
LayerCount: 4
Back
SplineSet
300 606 m 4
 209 606 137 566 137 447 c 6
 137 220 l 6
 137 101 209 61 300 61 c 4
 391 61 463 101 463 220 c 6
 463 447 l 6
 463 566 391 606 300 606 c 4
300 673 m 4
 427 673 535 612 535 446 c 6
 535 222 l 6
 535 56 427 -6 300 -6 c 4
 173 -6 65 56 65 222 c 6
 65 446 l 6
 65 612 173 673 300 673 c 4
545 693 m 5
 127 -27 l 5
 56 -27 l 5
 474 693 l 5
 545 693 l 5
EndSplineSet
Fore
SplineSet
300 606 m 0
 209 606 137 566 137 447 c 2
 137 220 l 2
 137 187 142 160 152 139 c 1
 407 578 l 1
 379 598 341 606 300 606 c 0
159 28 m 1
 127 -27 l 1
 56 -27 l 1
 112 69 l 1
 83 105 65 155 65 222 c 2
 65 446 l 2
 65 612 173 673 300 673 c 0
 353 673 402 662 442 638 c 1
 474 693 l 1
 545 693 l 1
 489 597 l 1
 518 561 535 512 535 446 c 2
 535 222 l 2
 535 56 427 -6 300 -6 c 0
 248 -6 199 4 159 28 c 1
448 527 m 1
 194 88 l 1
 222 69 259 61 300 61 c 0
 391 61 463 101 463 220 c 2
 463 447 l 2
 463 479 458 505 448 527 c 1
EndSplineSet
Validated: 1
Layer: 2
Layer: 3
EndChar
StartChar: Thorn
Encoding: 628 222 372
Width: 527
VWidth: 0
Flags: W
HStem: 0 21G<80 153> 129 69<153 353.086> 469 69<153 353.498> 647 20G<80 153>
VStem: 80 73<0 129 198 469 538 667> 409 73<251.663 415.697>
LayerCount: 4
Back
Fore
SplineSet
80 667 m 1
 153 667 l 1
 153 538 l 1
 282 538 l 2
 388 538 482 473 482 334 c 0
 482 194 387 129 282 129 c 2
 153 129 l 1
 153 0 l 1
 80 0 l 1
 80 667 l 1
153 469 m 1
 153 198 l 1
 282 198 l 2
 351 198 409 242 409 334 c 0
 409 425 352 469 282 469 c 2
 153 469 l 1
EndSplineSet
Validated: 1
Layer: 2
Layer: 3
EndChar
StartChar: germandbls
Encoding: 629 223 373
Width: 540
VWidth: 0
Flags: W
HStem: 0 69<283.29 385.523> 309 68<213 357.634> 598 69<204.125 352.958>
VStem: 80 73<0 543.459> 203 70<78.5191 130> 398 73<416.588 552.338> 417 73<100.69 257.078>
LayerCount: 4
Back
Fore
SplineSet
394 344 m 1xfc
 454 323 490 258 490 189 c 0
 490 88 444 0 325 0 c 0
 266 0 203 41 203 130 c 1
 273 130 l 1
 273 85 300 69 325 69 c 0
 399 69 417 125 417 189 c 0xfa
 417 252 369 309 285 309 c 6
 213 309 l 1
 213 377 l 1
 285 377 l 6
 364 377 398 429 398 488 c 0
 398 546 353 598 285 598 c 0
 204 598 153 555 153 452 c 2
 153 0 l 1
 80 0 l 1
 80 452 l 2
 80 603 167 667 285 667 c 0
 398 667 471 583 471 488 c 0
 471 425 438 371 394 344 c 1xfc
EndSplineSet
Validated: 1
Layer: 2
Layer: 3
EndChar
StartChar: ae
Encoding: 230 230 112
Width: 720
VWidth: 0
Flags: W
HStem: -6 66<148.396 266.437 436.651 581.044> 218 64<388 602> 232 62<152.658 320> 419 64<125.161 281.09 435.062 554.957>
VStem: 50 70<86.7263 203.449> 320 68<118.213 218 289 369.287> 602 68<282 364.875>
LayerCount: 4
Back
SplineSet
505 -6 m 4xfa
 408 -6 328 61 328 204 c 6
 328 272 l 6xf6
 328 416 408 483 495 483 c 4
 582 483 670 418 670 268 c 6
 670 218 l 5
 360 218 l 5
 360 282 l 5
 602 282 l 5
 602 371 549 419 495 419 c 4
 441 419 388 373 388 273 c 6
 388 204 l 6
 388 106 440 59 505 59 c 4
 536 59 569 71 600 97 c 5
 639 47 l 5
 607 17 555 -6 505 -6 c 4xfa
223 483 m 4
 309 483 380 428 380 290 c 5xf6
 388 250 l 5
 320 140 l 5
 320 291 l 5xfa
 320 383 277 419 213 419 c 4
 186 419 140 409 101 384 c 4
 65 438 l 4
 115 469 168 483 223 483 c 4
50 146 m 4
 50 258 152 321 360 283 c 13
 380 204 l 6
 380 60 282 -6 195 -6 c 4
 117 -6 50 55 50 146 c 4
120 140 m 4
 120 92 161 60 205 60 c 4
 257 60 320 106 320 204 c 6xfa
 361 225 l 21
 184 246 120 227 120 140 c 4
EndSplineSet
Fore
SplineSet
120 140 m 0xbe
 120 92 161 60 205 60 c 0
 257 60 320 106 320 204 c 2
 320 229 l 1
 294 229 272 232 251 232 c 0
 157 232 120 206 120 140 c 0xbe
50 146 m 0
 50 236 116 294 249 294 c 0xbe
 271 294 294 292 320 289 c 1
 320 291 l 2
 320 383 277 419 213 419 c 0
 186 419 140 409 101 384 c 1
 65 438 l 1
 115 469 168 483 223 483 c 0
 280 483 330 459 358 402 c 1
 389 457 441 483 495 483 c 0
 582 483 670 418 670 268 c 2
 670 218 l 1
 388 218 l 1xde
 388 204 l 2
 388 106 440 59 505 59 c 0
 536 59 571 71 602 97 c 1
 639 47 l 1
 607 17 555 -6 505 -6 c 0
 440 -6 383 24 352 87 c 1
 317 24 253 -6 195 -6 c 0
 117 -6 50 55 50 146 c 0
388 282 m 1xde
 602 282 l 1
 602 371 549 419 495 419 c 0
 443 419 388 376 388 282 c 1xde
EndSplineSet
Validated: 1
Layer: 2
Layer: 3
EndChar
StartChar: eth
Encoding: 240 240 370
Width: 483
VWidth: 0
Flags: W
HStem: -6 66<176.804 313.057> 367 66<176.684 314.327>
VStem: 50 70<120.972 305.551> 370 68<120.972 308.524>
LayerCount: 4
Back
SplineSet
219 537 m 5xe0
 390 657 l 5
 421 613 l 5
 250 493 l 5
 219 537 l 5xe0
235 433 m 4
 331 433 410 357 410 213 c 13xe8
 438 204 l 6xf0
 438 61 342 -6 245 -6 c 4
 148 -6 50 61 50 204 c 6
 50 222 l 6
 50 366 138 433 235 433 c 4
245 367 m 4
 183 367 120 321 120 223 c 6
 120 204 l 6
 120 106 183 60 245 60 c 4
 307 60 370 106 370 204 c 6xf0
 370 212 l 6
 370 311 307 367 245 367 c 4
224 643 m 5
 264 677 l 5
 422 549 438 414 438 204 c 5xf0
 370 270 l 5xe8
 370 415 357 530 224 643 c 5
EndSplineSet
Fore
SplineSet
438 204 m 1
 438 61 342 -6 245 -6 c 0
 148 -6 50 61 50 204 c 2
 50 222 l 2
 50 366 138 433 235 433 c 0
 287 433 334 411 367 367 c 1
 361 428 347 485 315 539 c 1
 250 493 l 1
 219 537 l 1
 284 583 l 1
 267 603 248 623 224 643 c 1
 264 677 l 1
 289 656 311 636 330 615 c 1
 390 657 l 1
 421 613 l 1
 362 572 l 1
 429 472 438 358 438 204 c 1
245 367 m 0
 183 367 120 321 120 223 c 2
 120 204 l 2
 120 106 183 60 245 60 c 0
 307 60 370 106 370 204 c 2
 370 222 l 6
 370 321 307 367 245 367 c 0
EndSplineSet
Validated: 1
Layer: 2
Layer: 3
EndChar
StartChar: divide
Encoding: 247 247 89
Width: 480
Flags: W
HStem: 68 91<201.289 280.711> 223 56<80 400> 338 91<201.289 280.711>
VStem: 195 92<74.2479 152.711 344.289 422.752>
LayerCount: 4
Back
Fore
SplineSet
80 279 m 1
 400 279 l 1
 400 223 l 1
 80 223 l 1
 80 279 l 1
241 429 m 0
 268 429 287 410 287 384 c 0
 287 357 268 338 241 338 c 0
 214 338 195 357 195 384 c 0
 195 410 214 429 241 429 c 0
241 159 m 0
 268 159 287 140 287 113 c 0
 287 87 268 68 241 68 c 0
 214 68 195 87 195 113 c 0
 195 140 214 159 241 159 c 0
EndSplineSet
Validated: 1
Layer: 2
Layer: 3
EndChar
StartChar: oslash
Encoding: 380 248 124
Width: 490
VWidth: 0
Flags: W
HStem: -6 62<178.034 313.922> 421 62<176.078 312.121>
VStem: 50 67<121.036 358.581> 373 67<118.419 355.964>
AnchorPoint: "Bottom" 0 0 basechar 0
AnchorPoint: "Center" 0 0 basechar 0
AnchorPoint: "Top" 245 546 basechar 0
LayerCount: 4
Back
SplineSet
380 507 m 5
 448 507 l 5
 111 -30 l 5
 43 -30 l 5
 380 507 l 5
245 483 m 4
 341 483 440 417 440 273 c 6
 440 204 l 6
 440 61 342 -6 245 -6 c 4
 148 -6 50 61 50 204 c 6
 50 272 l 6
 50 416 148 483 245 483 c 4
245 421 m 4
 182 421 117 374 117 274 c 6
 117 204 l 6
 117 103 182 56 245 56 c 4
 308 56 373 103 373 203 c 6
 373 273 l 6
 373 374 308 421 245 421 c 4
EndSplineSet
Fore
SplineSet
245 421 m 0
 182 421 117 374 117 274 c 2
 117 204 l 2
 117 170 124 142 137 120 c 1
 313 401 l 1
 293 414 269 421 245 421 c 0
380 507 m 1
 448 507 l 1
 392 418 l 1
 421 384 440 336 440 273 c 2
 440 204 l 2
 440 61 342 -6 245 -6 c 0
 210 -6 174 3 143 21 c 1
 111 -30 l 1
 43 -30 l 1
 99 59 l 1
 69 93 50 141 50 204 c 2
 50 272 l 2
 50 416 148 483 245 483 c 0
 280 483 316 474 348 455 c 1
 380 507 l 1
177 76 m 1
 198 62 222 56 245 56 c 0
 308 56 373 103 373 203 c 2
 373 273 l 2
 373 307 366 335 354 357 c 1
 177 76 l 1
EndSplineSet
Validated: 1
Layer: 2
Layer: 3
EndChar
StartChar: thorn
Encoding: 254 254 371
Width: 513
VWidth: 0
Flags: W
HStem: -6 66<198.335 336.316> 417 66<198.335 336.316> 647 20G<75 143>
VStem: 75 68<-185 59 118.213 358.524 417 667> 393 70<120.972 355.551>
LayerCount: 4
Back
Fore
SplineSet
278 483 m 0
 375 483 463 416 463 272 c 2
 463 204 l 2
 463 61 375 -6 278 -6 c 0
 224 -6 175 15 143 59 c 1
 143 -185 l 1
 75 -185 l 1
 75 667 l 1
 143 667 l 1
 143 417 l 1
 175 461 224 483 278 483 c 0
268 417 m 0
 206 417 143 371 143 272 c 2
 143 204 l 2
 143 106 206 60 268 60 c 0
 330 60 393 106 393 204 c 2
 393 273 l 2
 393 371 330 417 268 417 c 0
EndSplineSet
Validated: 1
Layer: 2
Layer: 3
EndChar
StartChar: Dcroat
Encoding: 272 272 377
Width: 621
VWidth: 0
Flags: W
HStem: 0 70<196 409.672> 313 60<50 122 196 323> 597 70<196 409.672>
VStem: 122 74<70 313 373 597> 477 74<139.365 528.141>
LayerCount: 4
Back
Fore
SplineSet
122 667 m 1
 316 667 l 2
 443 667 551 605 551 440 c 2
 551 228 l 2
 551 62 443 0 316 0 c 2
 122 0 l 1
 122 313 l 1
 50 313 l 1
 50 373 l 1
 122 373 l 1
 122 667 l 1
196 313 m 1
 196 70 l 1
 316 70 l 2
 406 70 477 110 477 228 c 2
 477 440 l 2
 477 557 406 597 316 597 c 2
 196 597 l 1
 196 373 l 1
 323 373 l 1
 323 313 l 1
 196 313 l 1
EndSplineSet
Validated: 1
Layer: 2
Layer: 3
EndChar
StartChar: dcroat
Encoding: 638 273 382
Width: 560
VWidth: 0
Flags: W
HStem: -6 66<176.684 314.665> 417 66<176.684 314.665> 532 61<220 370 438 500> 647 20G<370 438>
VStem: 50 70<120.972 355.551> 370 68<0 59 118.213 358.524 417 532 593 667>
LayerCount: 4
Back
SplineSet
220 593 m 5xf8
 500 593 l 5
 500 532 l 5
 220 532 l 5
 220 593 l 5xf8
235 483 m 4
 331 483 410 417 410 273 c 6
 410 204 l 6xfa
 410 61 332 -6 235 -6 c 4
 138 -6 50 61 50 204 c 6
 50 272 l 6
 50 416 138 483 235 483 c 4
245 417 m 4
 183 417 120 371 120 273 c 6
 120 204 l 6
 120 106 183 60 245 60 c 4
 307 60 370 106 370 204 c 6
 370 272 l 6xfc
 370 371 307 417 245 417 c 4
370 667 m 5
 438 667 l 5
 438 0 l 5xfc
 370 0 l 5xfa
 370 667 l 5
EndSplineSet
Fore
SplineSet
370 667 m 1
 438 667 l 1
 438 593 l 1
 500 593 l 1
 500 532 l 1
 438 532 l 1
 438 0 l 1
 370 0 l 1
 370 59 l 1
 338 15 289 -6 235 -6 c 0
 138 -6 50 61 50 204 c 2
 50 272 l 2
 50 416 138 483 235 483 c 0
 289 483 338 461 370 417 c 1
 370 532 l 1
 220 532 l 1
 220 593 l 1
 370 593 l 1
 370 667 l 1
245 417 m 0
 183 417 120 371 120 273 c 2
 120 204 l 2
 120 106 183 60 245 60 c 0
 307 60 370 106 370 204 c 2
 370 272 l 2
 370 371 307 417 245 417 c 0
EndSplineSet
Validated: 1
Layer: 2
Layer: 3
EndChar
StartChar: uni0123
Encoding: 639 291 383
Width: 508
VWidth: 0
Flags: W
HStem: -391 55<109.1 270.238> -6 66<176.684 314.665> 417 66<176.684 314.665>
VStem: 50 70<120.572 355.551> 274 58<-328.464 -271.052> 370 68<-63.7737 59 118.213 358.524 417 477>
LayerCount: 4
Back
SplineSet
207 -185 m 5xfe
 261 -185 l 5
 221 -264 l 5
 167 -264 l 5
 207 -185 l 5xfe
117 -325 m 5
 138 -332 158 -336 197 -336 c 4
 242 -336 274 -329 274 -301 c 4
 274 -271 241 -264 207 -264 c 5
 207 -230 l 5
 284 -230 332 -247 332 -301 c 4
 332 -364 284 -391 197 -391 c 4
 145 -391 117 -386 90 -376 c 5
 117 -325 l 5
370 477 m 5xff
 438 477 l 5
 438 0 l 6
 438 -101 359 -191 234 -191 c 4
 169 -191 115 -172 70 -138 c 5
 111 -86 l 5
 142 -112 188 -125 234 -125 c 4
 307 -125 370 -78 370 20 c 6
 370 477 l 5xff
235 483 m 4
 331 483 410 416 410 273 c 6
 410 204 l 6xfe80
 410 60 332 -6 235 -6 c 4
 138 -6 50 60 50 204 c 6
 50 272 l 6
 50 416 138 483 235 483 c 4
245 417 m 4
 183 417 120 371 120 273 c 6
 120 204 l 6
 120 105 183 60 245 60 c 4
 307 60 370 106 370 204 c 6
 370 272 l 6xff
 370 371 307 417 245 417 c 4
EndSplineSet
Fore
SplineSet
245 417 m 0
 183 417 120 371 120 273 c 2
 120 204 l 2
 120 105 183 60 245 60 c 0
 307 60 370 106 370 204 c 2
 370 272 l 2
 370 371 307 417 245 417 c 0
370 477 m 1
 438 477 l 1
 438 0 l 2
 438 -94 369 -179 259 -190 c 1
 238 -231 l 1
 297 -236 332 -255 332 -301 c 0
 332 -364 284 -391 197 -391 c 0
 145 -391 117 -386 90 -376 c 1
 117 -325 l 1
 138 -332 158 -336 197 -336 c 0
 242 -336 274 -329 274 -301 c 0
 274 -271 241 -264 207 -264 c 2
 167 -264 l 1
 205 -190 l 1
 153 -185 108 -167 70 -138 c 1
 111 -86 l 1
 142 -112 188 -125 234 -125 c 0
 307 -125 370 -78 370 20 c 2
 370 59 l 1
 338 15 289 -6 235 -6 c 0
 138 -6 50 60 50 204 c 2
 50 272 l 2
 50 416 138 483 235 483 c 0
 289 483 338 461 370 417 c 1
 370 477 l 1
EndSplineSet
Validated: 1
Layer: 2
Layer: 3
EndChar
StartChar: Hbar
Encoding: 294 294 380
Width: 680
VWidth: 0
Flags: W
HStem: 0 21G<119 193 485 559> 308 70<193 485> 532 61<60 119 193 485 559 620> 647 20G<119 193 485 559>
VStem: 119 74<0 308 378 532 593 667> 485 74<0 308 378 532 593 667>
LayerCount: 4
Back
Fore
SplineSet
119 667 m 1
 193 667 l 1
 193 593 l 1
 485 593 l 1
 485 667 l 1
 559 667 l 1
 559 593 l 1
 620 593 l 1
 620 532 l 1
 559 532 l 1
 559 0 l 1
 485 0 l 1
 485 308 l 1
 193 308 l 1
 193 0 l 1
 119 0 l 1
 119 532 l 1
 60 532 l 1
 60 593 l 1
 119 593 l 1
 119 667 l 1
193 532 m 1
 193 378 l 1
 485 378 l 1
 485 532 l 1
 193 532 l 1
EndSplineSet
Validated: 1
Layer: 2
Layer: 3
EndChar
StartChar: hbar
Encoding: 641 295 385
Width: 574
VWidth: 0
Flags: W
HStem: 0 21G<134 204 444 514> 417 66<259.335 394.895> 532 61<60 134 204 340> 647 20G<134 204>
VStem: 134 70<0 358.787 417 532 593 667> 444 70<0 361.55>
LayerCount: 4
Back
Fore
SplineSet
339 483 m 0
 435 483 514 417 514 273 c 2
 514 0 l 1
 444 0 l 1
 444 272 l 2
 444 371 391 417 329 417 c 0
 267 417 204 371 204 273 c 2
 204 0 l 1
 134 0 l 1
 134 532 l 1
 60 532 l 1
 60 593 l 1
 134 593 l 1
 134 667 l 1
 204 667 l 1
 204 593 l 1
 340 593 l 1
 340 532 l 1
 204 532 l 1
 204 417 l 1
 236 461 285 483 339 483 c 0
EndSplineSet
Validated: 1
Layer: 2
Layer: 3
EndChar
StartChar: IJ
Encoding: 306 306 384
Width: 647
VWidth: 0
Flags: W
HStem: -6 70<312.811 449.411> 647 20G<80 154 498 572>
VStem: 80 74<0 667> 498 74<118.264 667>
LayerCount: 4
Back
Fore
SplineSet
498 667 m 1
 572 667 l 1
 572 200 l 1
 572 59 476 -6 387 -6 c 0
 359 -6 278 -6 206 88 c 1
 263 132 l 1
 315 64 365 64 387 64 c 0
 439 64 498 107 498 200 c 1
 498 667 l 1
154 667 m 1
 154 0 l 1
 80 0 l 1
 80 667 l 1
 154 667 l 1
EndSplineSet
Validated: 1
Layer: 2
Layer: 3
EndChar
StartChar: ij
Encoding: 645 307 389
Width: 363
VWidth: 0
Flags: W
HStem: -190 62<142 210.346> 0 21G<72 142> 540 94<65.5618 146.671 215.562 296.671>
VStem: 59 94<546.897 627.103> 72 70<0 477> 209 94<546.897 627.103> 222 70<-117.855 477>
LayerCount: 4
Back
Fore
SplineSet
106 634 m 4xf0
 134 634 153 615 153 587 c 4
 153 559 134 540 106 540 c 4
 79 540 59 559 59 587 c 4
 59 615 79 634 106 634 c 4xf0
72 477 m 5xe8
 142 477 l 5
 142 0 l 5
 72 0 l 5
 72 477 l 5xe8
256 634 m 4
 284 634 303 615 303 587 c 4
 303 559 284 540 256 540 c 4
 229 540 209 559 209 587 c 4xe4
 209 615 229 634 256 634 c 4
292 -60 m 6xea
 292 -149 231 -190 172 -190 c 6
 142 -190 l 5
 142 -128 l 5
 172 -128 l 6
 197 -128 222 -109 222 -60 c 6
 222 477 l 5
 292 477 l 5
 292 -60 l 6xea
EndSplineSet
Validated: 1
Layer: 2
Layer: 3
EndChar
StartChar: kgreenlandic
Encoding: 692 312 436
Width: 457
VWidth: 0
Flags: W
HStem: 0 21G<75 143 332.132 427>
VStem: 75 68<0 137 228 477>
LayerCount: 4
Back
Fore
SplineSet
75 477 m 1
 143 477 l 1
 143 228 l 1
 330 477 l 1
 412 477 l 1
 245 260 l 1
 427 0 l 1
 346 0 l 1
 199 212 l 1
 143 137 l 1
 143 0 l 1
 75 0 l 1
 75 477 l 1
EndSplineSet
Validated: 1
Layer: 2
Layer: 3
EndChar
StartChar: Lcaron
Encoding: 507 317 251
Width: 490
VWidth: 0
Flags: W
HStem: 0 70<154 460> 653 14G<80 154 274.5 299.5>
VStem: 80 74<70 667> 236 102<579.194 664.877>
LayerCount: 4
Back
Fore
SplineSet
287 673 m 0
 312 673 338 657 338 622 c 0
 338 616 337 599 329 576 c 2
 284 456 l 1
 239 456 l 1
 268 574 l 1
 250 580 236 596 236 622 c 0
 236 657 262 673 287 673 c 0
80 667 m 1
 154 667 l 1
 154 70 l 1
 460 70 l 1
 460 0 l 1
 80 0 l 1
 80 667 l 1
EndSplineSet
Validated: 1
Layer: 2
Layer: 3
EndChar
StartChar: lcaron
Encoding: 508 318 252
Width: 381
VWidth: 0
Flags: W
HStem: 0 21G<75 145> 647 20G<75 145 257.5 282.5>
VStem: 75 70<0 667> 219 102<580.194 665.877>
LayerCount: 4
Back
Fore
SplineSet
75 667 m 1
 145 667 l 1
 145 0 l 1
 75 0 l 1
 75 667 l 1
270 674 m 0
 295 674 321 658 321 623 c 0
 321 617 320 600 312 577 c 2
 267 457 l 1
 222 457 l 1
 251 575 l 1
 233 581 219 597 219 623 c 0
 219 658 245 674 270 674 c 0
EndSplineSet
Validated: 1
Layer: 2
Layer: 3
EndChar
StartChar: ldot
Encoding: 510 320 254
Width: 434
VWidth: 0
HStem: 0 21G<75 145> 282 102<210.227 295.773> 647 20G<75 145>
VStem: 75 70<0 667> 202 102<290.227 375.773>
LayerCount: 4
Back
Fore
SplineSet
75 667 m 1
 145 667 l 1
 145 0 l 1
 75 0 l 1
 75 667 l 1
253 384 m 0
 283 384 304 363 304 333 c 0
 304 303 283 282 253 282 c 0
 223 282 202 303 202 333 c 0
 202 363 223 384 253 384 c 0
EndSplineSet
Validated: 1
Layer: 2
Layer: 3
EndChar
StartChar: Lslash
Encoding: 321 321 386
Width: 615
VWidth: 0
Flags: W
HStem: 0 70<249 555> 647 20G<175 249>
VStem: 175 74<70 270 368 667>
LayerCount: 4
Back
SplineSet
60 273 m 5
 380 433 l 5
 380 372 l 5
 60 212 l 5
 60 273 l 5
175 667 m 5
 249 667 l 5
 249 70 l 5
 555 70 l 5
 555 0 l 5
 175 0 l 5
 175 667 l 5
EndSplineSet
Fore
SplineSet
175 667 m 1
 249 667 l 1
 249 368 l 1
 380 433 l 1
 380 372 l 1
 249 306 l 5
 249 70 l 1
 555 70 l 1
 555 0 l 1
 175 0 l 1
 175 270 l 1
 60 212 l 1
 60 273 l 1
 175 330 l 1
 175 667 l 1
EndSplineSet
Validated: 1
Layer: 2
Layer: 3
EndChar
StartChar: lslash
Encoding: 322 322 387
Width: 440
VWidth: 0
Flags: W
HStem: 0 21G<180 250> 647 20G<180 250>
VStem: 180 70<0 272 368 667>
LayerCount: 4
Back
Fore
SplineSet
180 667 m 1
 250 667 l 1
 250 368 l 1
 380 433 l 1
 380 372 l 1
 250 307 l 1
 250 0 l 1
 180 0 l 1
 180 272 l 1
 60 212 l 1
 60 273 l 1
 180 333 l 1
 180 667 l 1
EndSplineSet
Validated: 1
Layer: 2
Layer: 3
EndChar
StartChar: napostrophe
Encoding: 648 329 392
Width: 648
VWidth: 0
Flags: W
HStem: 0 21G<208 278 518 588> 417 66<333.335 468.895> 647 20G<136.038 216>
VStem: 208 70<0 358.787 417 477> 518 70<0 361.55>
LayerCount: 4
Back
Fore
SplineSet
413 483 m 0
 509 483 588 417 588 273 c 2
 588 0 l 1
 518 0 l 1
 518 272 l 2
 518 371 465 417 403 417 c 0
 341 417 278 371 278 273 c 2
 278 0 l 1
 208 0 l 1
 208 477 l 1
 278 477 l 1
 278 417 l 1
 310 461 359 483 413 483 c 0
144 667 m 1
 216 667 l 1
 121 456 l 1
 60 456 l 1
 144 667 l 1
EndSplineSet
Validated: 1
Layer: 2
Layer: 3
EndChar
StartChar: Eng
Encoding: 649 330 393
Width: 596
VWidth: 0
Flags: W
HStem: -190 62<364 430.661> 0 21G<80 152> 647 20G<80 154.577 444 516>
VStem: 80 72<0 520> 444 72<-117.855 16 147 667>
LayerCount: 4
Back
Fore
SplineSet
80 667 m 1
 143 667 l 1
 444 147 l 1
 444 667 l 1
 516 667 l 1
 516 -60 l 0
 516 -149 455 -190 394 -190 c 2
 364 -190 l 1
 364 -128 l 1
 394 -128 l 2
 419 -128 444 -109 444 -60 c 2
 444 16 l 1
 152 520 l 1
 152 0 l 1
 80 0 l 1
 80 667 l 1
EndSplineSet
Validated: 1
Layer: 2
Layer: 3
EndChar
StartChar: eng
Encoding: 650 331 394
Width: 510
VWidth: 0
Flags: W
HStem: -190 62<300 368.346> 0 21G<70 140> 417 66<195.335 330.895>
VStem: 70 70<0 358.787 417 477> 380 70<-117.855 361.55>
LayerCount: 4
Back
Fore
SplineSet
275 483 m 0
 371 483 450 417 450 273 c 2
 450 -60 l 2
 450 -149 389 -190 330 -190 c 2
 300 -190 l 1
 300 -128 l 1
 330 -128 l 2
 355 -128 380 -109 380 -60 c 2
 380 272 l 2
 380 371 327 417 265 417 c 0
 203 417 140 371 140 273 c 2
 140 0 l 1
 70 0 l 1
 70 477 l 1
 140 477 l 1
 140 417 l 1
 172 461 221 483 275 483 c 0
EndSplineSet
Validated: 1
Layer: 2
Layer: 3
EndChar
StartChar: OE
Encoding: 449 338 193
Width: 843
VWidth: 0
Flags: W
HStem: -6 70<205.407 397.524 534 778> 308 70<534 737> 603 70<205.407 397.524 532 777>
VStem: 65 74<133.365 534.141> 460 74<123.377 308 378 543.948>
LayerCount: 4
Back
SplineSet
460 667 m 5xf8
 777 667 l 5
 777 597 l 5
 532 597 l 5
 532 378 l 5
 737 378 l 5
 737 308 l 5
 534 308 l 5
 532 70 l 5
 778 70 l 5
 777 0 l 5
 460 0 l 5
 460 667 l 5xf8
300 603 m 4
 210 603 139 563 139 446 c 6
 139 222 l 6
 139 104 210 64 300 64 c 4
 390 64 461 104 461 222 c 6
 461 446 l 6xf4
 461 563 390 603 300 603 c 4
300 673 m 4
 427 673 505 611 505 446 c 6
 505 222 l 6
 505 56 427 -6 300 -6 c 4
 173 -6 65 56 65 222 c 6
 65 446 l 6
 65 611 173 673 300 673 c 4
EndSplineSet
Fore
SplineSet
300 603 m 0
 210 603 139 563 139 446 c 2
 139 222 l 2
 139 104 210 64 300 64 c 0
 384 64 460 99 460 199 c 1
 460 469 l 1
 460 568 384 603 300 603 c 0
460 667 m 1
 777 667 l 1
 777 597 l 1
 532 597 l 1
 532 378 l 1
 737 378 l 1
 737 308 l 1
 534 308 l 1
 534 70 l 1
 778 70 l 1
 778 0 l 1
 460 0 l 1
 460 57 l 1
 425 13 370 -6 300 -6 c 0
 173 -6 65 56 65 222 c 2
 65 446 l 2
 65 611 173 673 300 673 c 0
 370 673 425 654 460 610 c 1
 460 667 l 1
EndSplineSet
Validated: 1
Layer: 2
Layer: 3
EndChar
StartChar: oe
Encoding: 358 339 102
Width: 750
VWidth: 0
Flags: W
HStem: -6 66<177.759 292.364 455.262 602.769> 218 64<408 622> 417 66<177.759 292.364 453.638 577.703>
VStem: 60 70<115.862 364.398> 340 68<112.602 218 282 363.366> 622 68<282 369.914>
LayerCount: 4
Back
SplineSet
515 -6 m 4xf9
 428 -6 350 61 350 204 c 6
 350 272 l 6xf5
 350 416 428 483 515 483 c 4
 605 483 690 418 690 268 c 6
 690 218 l 5
 380 218 l 5
 380 282 l 5xf3
 622 282 l 5
 622 375 574 419 515 419 c 4
 461 419 408 373 408 273 c 6
 408 204 l 6
 408 106 460 59 515 59 c 4
 559 59 592 71 635 102 c 5
 670 50 l 5
 614 11 575 -6 515 -6 c 4xf9
235 483 m 4
 321 483 398 417 398 273 c 6
 398 204 l 6xf3
 398 61 322 -6 235 -6 c 4
 148 -6 60 61 60 204 c 6
 60 272 l 6
 60 416 148 483 235 483 c 4
235 417 m 4
 183 417 130 371 130 273 c 6
 130 204 l 6
 130 106 183 60 235 60 c 4
 287 60 340 106 340 204 c 6
 340 272 l 6xf9
 340 371 287 417 235 417 c 4
EndSplineSet
Fore
SplineSet
235 417 m 0
 183 417 130 371 130 273 c 2
 130 204 l 2
 130 106 183 60 235 60 c 0
 287 60 340 106 340 204 c 2
 340 272 l 2
 340 371 287 417 235 417 c 0
408 282 m 1
 622 282 l 1
 622 375 574 417 515 417 c 0
 463 417 408 376 408 282 c 1
408 218 m 1
 408 204 l 2
 408 106 460 59 515 59 c 0
 559 59 592 71 635 102 c 1
 670 50 l 1
 614 11 575 -6 515 -6 c 0
 458 -6 404 23 374 84 c 1
 345 23 292 -6 235 -6 c 0
 148 -6 60 61 60 204 c 2
 60 272 l 2
 60 416 148 483 235 483 c 0
 292 483 345 454 374 393 c 1
 404 454 458 483 515 483 c 0
 605 483 690 418 690 268 c 2
 690 218 l 1
 408 218 l 1
EndSplineSet
Validated: 1
Layer: 2
Layer: 3
EndChar
StartChar: Tbar
Encoding: 651 358 395
Width: 490
VWidth: 0
Flags: W
HStem: 0 21G<208 282> 292 61<83 208 282 403> 597 70<20 208 282 470>
VStem: 208 74<0 292 353 597>
LayerCount: 4
Back
Fore
SplineSet
20 667 m 1
 470 667 l 1
 470 597 l 1
 282 597 l 1
 282 353 l 1
 403 353 l 1
 403 292 l 1
 282 292 l 1
 282 0 l 1
 208 0 l 1
 208 292 l 1
 83 292 l 1
 83 353 l 1
 208 353 l 1
 208 597 l 1
 20 597 l 1
 20 667 l 1
EndSplineSet
Validated: 1
Layer: 2
Layer: 3
EndChar
StartChar: tbar
Encoding: 359 359 392
Width: 420
VWidth: 0
Flags: W
HStem: 0 66<248.654 347> 262 56<50 167 237 370> 415 62<107 167 237 327>
VStem: 167 70<78.4111 262 318 415 477 571>
LayerCount: 4
Back
Fore
SplineSet
237 477 m 1
 327 477 l 1
 327 415 l 1
 237 415 l 1
 237 318 l 1
 370 318 l 1
 370 262 l 1
 237 262 l 1
 237 130 l 2
 237 85 262 66 287 66 c 2
 347 66 l 1
 347 0 l 1
 287 0 l 2
 228 0 167 41 167 130 c 2
 167 262 l 1
 50 262 l 1
 50 318 l 1
 167 318 l 1
 167 415 l 1
 107 415 l 1
 107 477 l 1
 167 477 l 1
 167 571 l 1
 237 571 l 1
 237 477 l 1
EndSplineSet
Validated: 1
Layer: 2
Layer: 3
EndChar
StartChar: uni018F
Encoding: 399 399 413
Width: 580
VWidth: 0
Flags: W
HStem: -6 70<204.775 375.225> 267 70<139 441> 603 70<197.058 375.225>
VStem: 65 74<129.695 267> 441 74<129.695 267 337 534.141>
LayerCount: 4
Back
Fore
SplineSet
290 673 m 4
 407 673 515 611 515 446 c 2
 515 222 l 2
 515 56 407 -6 290 -6 c 0
 173 -6 65 56 65 222 c 2
 65 337 l 1
 441 337 l 1
 441 446 l 2
 441 563 370 603 290 603 c 0
 256 603 201 603 153 540 c 1
 96 584 l 1
 164 673 251 673 290 673 c 4
441 267 m 1
 139 267 l 1
 139 222 l 1
 139 104 210 64 290 64 c 0
 370 64 441 104 441 222 c 2
 441 267 l 1
EndSplineSet
Validated: 1
Layer: 2
Layer: 3
EndChar
StartChar: florin
Encoding: 402 402 121
Width: 380
VWidth: 0
Flags: W
HStem: -185 62<45 143.346> 416 61<95 155 225 315> 595 62<236.654 335>
VStem: 155 70<-112.438 416 477 584.561>
LayerCount: 4
Back
Fore
SplineSet
225 -54 m 2
 225 -144 164 -185 105 -185 c 2
 45 -185 l 1
 45 -123 l 1
 105 -123 l 2
 130 -123 155 -103 155 -54 c 2
 155 416 l 1
 95 416 l 1
 95 477 l 1
 155 477 l 1
 155 527 l 2
 155 616 216 657 275 657 c 2
 335 657 l 1
 335 595 l 1
 275 595 l 2
 250 595 225 575 225 527 c 2
 225 477 l 1
 315 477 l 1
 315 416 l 1
 225 416 l 1
 225 -54 l 2
EndSplineSet
Validated: 1
Layer: 2
Layer: 3
EndChar
StartChar: uni01C4
Encoding: 659 452 403
Width: 997
VWidth: 0
Flags: W
HStem: 0 70<154 367.672 604 937> 597 70<154 367.672 527 839>
VStem: 80 74<70 597> 435 74<136.489 528.141>
LayerCount: 4
Back
Fore
SplineSet
457 780 m 1
 536 858 l 1
 606 858 l 1
 475 727 l 1
 439 727 l 1
 308 858 l 1
 378 858 l 1
 457 780 l 1
527 667 m 1
 927 667 l 1
 927 617 l 1
 604 70 l 1
 937 70 l 1
 937 0 l 1
 517 0 l 1
 517 50 l 1
 839 597 l 1
 527 597 l 1
 527 667 l 1
154 597 m 1
 154 70 l 1
 274 70 l 18
 364 70 435 110 435 228 c 2
 435 440 l 2
 435 557 364 597 274 597 c 10
 154 597 l 1
80 667 m 1
 274 667 l 2
 401 667 509 605 509 440 c 2
 509 238 l 2
 509 72 401 0 274 0 c 10
 80 0 l 1
 80 667 l 1
EndSplineSet
Validated: 1
Layer: 2
Layer: 3
EndChar
StartChar: uni01C6
Encoding: 661 454 405
Width: 855
VWidth: 0
Flags: W
HStem: 0 66<168.854 321.457 571 805> 417 66<176.684 314.665 485 719> 647 20G<370 438>
VStem: 50 70<120.972 355.551> 370 68<0 59 118.213 358.524 417 667>
LayerCount: 4
Back
Fore
SplineSet
370 667 m 1
 438 667 l 1
 438 0 l 1
 370 0 l 1
 370 59 l 1
 338 15 289 -6 235 -6 c 0
 138 -6 50 61 50 204 c 2
 50 272 l 2
 50 416 138 483 235 483 c 0
 289 483 338 461 370 417 c 1
 370 667 l 1
245 417 m 0
 183 417 120 371 120 273 c 2
 120 204 l 2
 120 106 183 60 245 60 c 0
 307 60 370 106 370 204 c 2
 370 272 l 2
 370 371 307 417 245 417 c 0
571 66 m 1
 805 66 l 1
 805 0 l 1
 485 0 l 1
 485 50 l 1
 719 411 l 1
 485 411 l 1
 485 477 l 1
 805 477 l 1
 805 427 l 1
 571 66 l 1
457 780 m 1
 536 858 l 1
 606 858 l 1
 475 727 l 1
 439 727 l 1
 308 858 l 1
 378 858 l 1
 457 780 l 1
EndSplineSet
Validated: 1
Layer: 2
Layer: 3
EndChar
StartChar: uni01C7
Encoding: 455 455 402
Width: 936
VWidth: 0
Flags: W
HStem: 0 70<154 460 597.589 748.656> 647 20G<80 154 792 866>
VStem: 80 74<70 667> 792 74<118.264 667>
LayerCount: 4
Back
Fore
SplineSet
792 667 m 1
 866 667 l 1
 866 200 l 1
 866 59 770 -6 681 -6 c 0
 653 -6 572 -6 500 88 c 1
 557 132 l 1
 609 64 659 64 681 64 c 0
 733 64 792 107 792 200 c 1
 792 667 l 1
80 667 m 1
 154 667 l 1
 154 70 l 1
 460 70 l 1
 460 0 l 1
 80 0 l 1
 80 667 l 1
EndSplineSet
Validated: 1
Layer: 2
Layer: 3
EndChar
StartChar: uni01C8
Encoding: 663 456 407
Width: 641
VWidth: 0
Flags: W
HStem: -190 62<431 499.346> 0 70<154 460> 540 94<503.562 584.671> 647 20G<80 154>
VStem: 80 74<70 667> 497 94<546.897 627.103> 511 70<-117.855 477>
LayerCount: 4
Back
Fore
SplineSet
544 634 m 0xfc
 572 634 591 615 591 587 c 0
 591 559 572 540 544 540 c 0
 517 540 497 559 497 587 c 0
 497 615 517 634 544 634 c 0xfc
581 -60 m 2xfa
 581 -149 520 -190 461 -190 c 2
 431 -190 l 1
 431 -128 l 1
 461 -128 l 2
 486 -128 511 -109 511 -60 c 2
 511 477 l 1
 581 477 l 1
 581 -60 l 2xfa
80 667 m 1
 154 667 l 1
 154 70 l 1
 460 70 l 1
 460 0 l 1
 80 0 l 1
 80 667 l 1
EndSplineSet
Validated: 1
Layer: 2
Layer: 3
EndChar
StartChar: uni01C9
Encoding: 664 457 408
Width: 345
VWidth: 0
Flags: W
HStem: -190 62<135 203.346> 0 21G<75 145> 540 94<208.562 289.671> 647 20G<75 145>
VStem: 75 70<0 667> 202 94<546.897 627.103> 215 70<-117.855 477>
LayerCount: 4
Back
Fore
SplineSet
249 634 m 0xfc
 277 634 296 615 296 587 c 0
 296 559 277 540 249 540 c 0
 222 540 202 559 202 587 c 0
 202 615 222 634 249 634 c 0xfc
285 -60 m 2xfa
 285 -149 224 -190 165 -190 c 2
 135 -190 l 1
 135 -128 l 1
 165 -128 l 2
 190 -128 215 -109 215 -60 c 2
 215 477 l 1
 285 477 l 1
 285 -60 l 2xfa
75 667 m 1
 145 667 l 1
 145 0 l 1
 75 0 l 1
 75 667 l 1
EndSplineSet
Validated: 1
Layer: 2
Layer: 3
EndChar
StartChar: uni01CA
Encoding: 458 458 405
Width: 997
VWidth: 0
Flags: W
HStem: -6 70<667.811 804.411> 647 20G<80 154.577 444 516 853 927>
VStem: 80 72<0 520> 444 72<147 667> 853 74<118.264 667>
LayerCount: 4
Back
Fore
SplineSet
853 667 m 1
 927 667 l 1
 927 200 l 1
 927 59 831 -6 742 -6 c 0
 714 -6 633 -6 561 88 c 1
 618 132 l 1
 670 64 720 64 742 64 c 0
 794 64 853 107 853 200 c 1
 853 667 l 1
80 667 m 1
 143 667 l 1
 444 147 l 1
 444 667 l 1
 516 667 l 1
 516 0 l 1
 453 0 l 1
 152 520 l 1
 152 0 l 1
 80 0 l 1
 80 667 l 1
EndSplineSet
Validated: 1
Layer: 2
Layer: 3
EndChar
StartChar: uni01CB
Encoding: 666 459 410
Width: 717
VWidth: 0
Flags: W
HStem: -190 62<507 575.346> 0 21G<80 152 441.423 516> 540 94<580.562 661.671> 647 20G<80 154.577 444 516>
VStem: 80 72<0 520> 444 72<147 667> 574 94<546.897 627.103> 587 70<-117.855 477>
LayerCount: 4
Back
Fore
SplineSet
621 634 m 0xfe
 649 634 668 615 668 587 c 0
 668 559 649 540 621 540 c 0
 594 540 574 559 574 587 c 0
 574 615 594 634 621 634 c 0xfe
657 -60 m 2xfd
 657 -149 596 -190 537 -190 c 2
 507 -190 l 1
 507 -128 l 1
 537 -128 l 2
 562 -128 587 -109 587 -60 c 2
 587 477 l 1
 657 477 l 1
 657 -60 l 2xfd
80 667 m 1
 143 667 l 1
 444 147 l 1
 444 667 l 1
 516 667 l 1
 516 0 l 1
 453 0 l 1
 152 520 l 1
 152 0 l 1
 80 0 l 1
 80 667 l 1
EndSplineSet
Validated: 1
Layer: 2
Layer: 3
EndChar
StartChar: uni01CC
Encoding: 460 460 407
Width: 651
VWidth: 0
Flags: W
HStem: -190 62<441 509.346> 0 21G<70 140 380 450> 417 66<195.335 330.895> 540 94<515.562 596.671>
VStem: 70 70<0 358.787 417 477> 380 70<0 361.55> 509 94<546.897 627.103> 521 70<-117.855 477>
LayerCount: 4
Back
Fore
SplineSet
275 483 m 0xfc
 371 483 450 417 450 273 c 2
 450 0 l 1
 380 0 l 1
 380 272 l 2
 380 371 327 417 265 417 c 0
 203 417 140 371 140 273 c 2
 140 0 l 1
 70 0 l 1
 70 477 l 1
 140 477 l 1
 140 417 l 1
 172 461 221 483 275 483 c 0xfc
591 -60 m 2xfd
 591 -149 530 -190 471 -190 c 2
 441 -190 l 1
 441 -128 l 1
 471 -128 l 2
 496 -128 521 -109 521 -60 c 2
 521 477 l 1
 591 477 l 1
 591 -60 l 2xfd
556 634 m 0
 584 634 603 615 603 587 c 0
 603 559 584 540 556 540 c 0
 529 540 509 559 509 587 c 0xfe
 509 615 529 634 556 634 c 0
EndSplineSet
Validated: 1
Layer: 2
Layer: 3
EndChar
StartChar: uni01F1
Encoding: 668 497 412
Width: 997
VWidth: 0
Flags: W
HStem: 0 70<154 367.672 604 937> 597 70<154 367.672 527 839>
VStem: 80 74<70 597> 435 74<136.489 528.141>
LayerCount: 4
Back
Fore
SplineSet
527 667 m 5
 927 667 l 5
 927 617 l 5
 604 70 l 5
 937 70 l 5
 937 0 l 5
 517 0 l 5
 517 50 l 5
 839 597 l 5
 527 597 l 5
 527 667 l 5
154 597 m 5
 154 70 l 5
 274 70 l 22
 364 70 435 110 435 228 c 6
 435 440 l 6
 435 557 364 597 274 597 c 14
 154 597 l 5
80 667 m 5
 274 667 l 6
 401 667 509 605 509 440 c 6
 509 238 l 6
 509 72 401 0 274 0 c 14
 80 0 l 5
 80 667 l 5
EndSplineSet
Validated: 1
Layer: 2
Layer: 3
EndChar
StartChar: uni01F2
Encoding: 669 498 413
Width: 928
VWidth: 0
Flags: W
HStem: 0 66<154 359.02 644 878> 411 66<558 792> 597 70<154 367.672>
VStem: 80 74<70 597> 435 74<136.489 528.141>
LayerCount: 4
Back
Fore
SplineSet
644 66 m 1
 878 66 l 1
 878 0 l 1
 558 0 l 1
 558 50 l 1
 792 411 l 1
 558 411 l 1
 558 477 l 1
 878 477 l 1
 878 427 l 1
 644 66 l 1
154 597 m 1
 154 70 l 1
 274 70 l 18
 364 70 435 110 435 228 c 2
 435 440 l 2
 435 557 364 597 274 597 c 10
 154 597 l 1
80 667 m 1
 274 667 l 2
 401 667 509 605 509 440 c 2
 509 238 l 2
 509 72 401 0 274 0 c 10
 80 0 l 1
 80 667 l 1
EndSplineSet
Validated: 1
Layer: 2
Layer: 3
EndChar
StartChar: uni0259
Encoding: 674 601 418
Width: 490
VWidth: 0
Flags: W
HStem: -6 64<173.881 316.119> 195 64<118 400> 418 65<140.008 313.095>
VStem: 50 68<117.281 195> 372 28<195 259>
LayerCount: 4
Back
Fore
SplineSet
235 483 m 0
 342 483 440 416 440 273 c 2
 440 205 l 2
 440 61 342 -6 245 -6 c 0
 148 -6 50 59 50 209 c 2
 50 259 l 1
 400 259 l 1
 400 195 l 1
 118 195 l 1
 118 106 181 58 245 58 c 0
 309 58 372 104 372 204 c 2
 372 273 l 2
 372 371 310 418 235 418 c 0
 189 418 143 404 112 378 c 1
 71 430 l 1
 116 464 170 483 235 483 c 0
EndSplineSet
Validated: 5
Layer: 2
Layer: 3
EndChar
StartChar: circumflex
Encoding: 710 710 143
Width: 458
Flags: W
HStem: 517 131
VStem: 80 298
AnchorPoint: "Top" 229 517 mark 0
LayerCount: 4
Back
Fore
SplineSet
229 595 m 1
 150 517 l 1
 80 517 l 1
 211 648 l 1
 247 648 l 1
 378 517 l 1
 308 517 l 1
 229 595 l 1
EndSplineSet
Validated: 1
Layer: 2
Layer: 3
EndChar
StartChar: caron
Encoding: 454 711 198
Width: 474
Flags: W
HStem: 517 131
VStem: 88 298
AnchorPoint: "Top" 237 517 mark 0
LayerCount: 4
Back
Fore
SplineSet
237 570 m 1
 316 648 l 1
 386 648 l 1
 255 517 l 1
 219 517 l 1
 88 648 l 1
 158 648 l 1
 237 570 l 1
EndSplineSet
Validated: 1
Layer: 2
Layer: 3
EndChar
StartChar: breve
Encoding: 450 728 194
Width: 418
VWidth: 0
Flags: W
HStem: 509 50<148.078 270.137>
VStem: 70 48<588.548 648> 301 47<589.005 648>
AnchorPoint: "Top" 209 517 mark 0
LayerCount: 4
Back
Fore
SplineSet
70 648 m 0
 118 648 l 0
 118 597 154 559 209 559 c 0
 264 559 301 597 301 648 c 0
 348 648 l 0
 348 566 286 509 209 509 c 0
 132 509 70 566 70 648 c 0
EndSplineSet
Validated: 1
Layer: 2
Layer: 3
EndChar
StartChar: dotaccent
Encoding: 729 729 196
Width: 254
VWidth: 0
Flags: W
HStem: 511 94<86.5618 167.671>
VStem: 80 94<517.897 598.103>
AnchorPoint: "Bottom" 127 668 mark 0
AnchorPoint: "Top" 127.5 517 mark 0
LayerCount: 4
Back
Fore
SplineSet
127 605 m 0
 155 605 174 586 174 558 c 0
 174 530 155 511 127 511 c 0
 100 511 80 530 80 558 c 0
 80 586 100 605 127 605 c 0
EndSplineSet
Validated: 1
Layer: 2
Layer: 3
EndChar
StartChar: ring
Encoding: 453 730 197
Width: 244
VWidth: 0
Flags: W
HStem: 501 42<83.3589 160.856> 639 42<83.3589 160.856>
VStem: 32 44<549.573 632.427> 168 44<549.573 632.427>
AnchorPoint: "Top" 122 517 mark 0
LayerCount: 4
Back
Fore
SplineSet
122 681 m 0
 176 681 212 645 212 591 c 0
 212 537 176 501 122 501 c 0
 69 501 32 537 32 591 c 0
 32 645 69 681 122 681 c 0
122 639 m 0
 94 639 76 619 76 591 c 0
 76 563 94 543 122 543 c 0
 150 543 168 563 168 591 c 0
 168 619 150 639 122 639 c 0
EndSplineSet
Validated: 1
Layer: 2
Layer: 3
EndChar
StartChar: ogonek
Encoding: 655 731 399
Width: 386
Flags: W
HStem: -202 55<156.282 229.693> -20 20G<123 205>
VStem: 100 50<-142.413 -37.2377>
AnchorPoint: "Bottom" 171 0 mark 0
LayerCount: 4
Back
SplineSet
208.744140625 47.4931640625 m 21
 172.120117188 0.6240234375 l 6
 120.352539062 -65.6259765625 104.71484375 -125.296875 156.909179688 -163.149414062 c 4
 205.293945312 -198.23828125 247.479492188 -146.774414062 265.905273438 -120.046875 c 1037
EndSplineSet
Fore
SplineSet
205 0 m 1
 161 -39 150 -75 150 -103 c 0
 150 -123 164 -147 190 -147 c 0
 215 -147 229 -129 245 -106 c 1
 286 -134 l 1
 273 -156 247 -202 190 -202 c 0
 129 -202 100 -147 100 -106 c 0
 100 -70 109 -30 137 0 c 1
 205 0 l 1
EndSplineSet
Validated: 1
Layer: 2
Layer: 3
EndChar
StartChar: tilde
Encoding: 732 732 183
Width: 452
Flags: W
HStem: 511 50<244.443 315.265> 570 50<137.219 206.475>
VStem: 80 50<517 563.061> 322 50<567.728 613>
AnchorPoint: "Top" 226 517 mark 0
LayerCount: 4
Back
SplineSet
104.55859375 534.018554688 m 21
 104.55859375 614.01953125 189.37109375 635.696289062 226 582 c 4
 262.62890625 528.303710938 347.44140625 549.98046875 347.44140625 629.981445312 c 1028
EndSplineSet
Fore
SplineSet
173 570 m 0
 146 570 130 549 130 517 c 1
 80 517 l 1
 80 572 115 620 171 620 c 0
 199 620 228 606 247 579 c 0
 256 566 268 561 281 561 c 0
 302 561 322 578 322 613 c 1
 372 613 l 1
 372 549 326 511 279 511 c 0
 251 511 224 523 205 551 c 0
 197 564 185 570 173 570 c 0
EndSplineSet
Validated: 1
Layer: 2
Layer: 3
EndChar
StartChar: hungarumlaut
Encoding: 455 733 199
Width: 473
Flags: W
HStem: 517 131
VStem: 80 313
AnchorPoint: "Top" 206 517 mark 0
LayerCount: 4
Back
Fore
SplineSet
393 648 m 25
 287 517 l 1
 226 517 l 1
 321 648 l 25
 393 648 l 25
247 648 m 25
 141 517 l 1
 80 517 l 1
 175 648 l 25
 247 648 l 25
EndSplineSet
Validated: 1
Layer: 2
Layer: 3
EndChar
StartChar: gravecomb
Encoding: 694 768 438
Width: 332
Flags: W
HStem: 517 131
VStem: 80 172
AnchorPoint: "Top" 187 517 mark 0
LayerCount: 4
Back
Fore
SplineSet
80 648 m 25
 157 648 l 25
 252 517 l 1
 186 517 l 1
 80 648 l 25
EndSplineSet
Validated: 1
Layer: 2
Layer: 3
EndChar
StartChar: acutecomb
Encoding: 769 769 434
Width: 332
Flags: W
HStem: 517 131
VStem: 80 172
AnchorPoint: "Top" 145 517 mark 0
LayerCount: 4
Back
Fore
SplineSet
252 648 m 25
 146 517 l 1
 80 517 l 1
 175 648 l 25
 252 648 l 25
EndSplineSet
Validated: 1
Layer: 2
Layer: 3
EndChar
StartChar: uni030F
Encoding: 677 783 421
Width: 473
Flags: W
HStem: 517 131
VStem: 80 313
AnchorPoint: "Top" 267 517 mark 0
LayerCount: 4
Back
Fore
SplineSet
80 648 m 25
 152 648 l 25
 247 517 l 1
 186 517 l 1
 80 648 l 25
226 648 m 25
 298 648 l 25
 393 517 l 1
 332 517 l 1
 226 648 l 25
EndSplineSet
Validated: 1
Layer: 2
Layer: 3
EndChar
StartChar: uni0311
Encoding: 785 785 432
Width: 418
VWidth: 0
Flags: W
HStem: 606 50<148.508 269.289>
VStem: 70 50<517 576.452> 298 50<517 576.452>
AnchorPoint: "Top" 209 517 mark 0
LayerCount: 4
Back
Fore
SplineSet
70 517 m 0
 70 599 132 656 209 656 c 0
 286 656 348 599 348 517 c 0
 298 517 l 0
 298 568 263 606 209 606 c 0
 154 606 120 568 120 517 c 0
 70 517 l 0
EndSplineSet
Validated: 1
Layer: 2
Layer: 3
EndChar
StartChar: alpha
Encoding: 945 945 419
Width: 519
VWidth: 0
Flags: W
HStem: -6 66<156.684 294.041 434.555 479> 417 66<156.684 294.665>
VStem: 30 70<120.972 355.551> 350 68<118.213 358.524 417 477>
LayerCount: 4
Back
SplineSet
360 130 m 6xf2
 418 130 l 6xf8
 418 85 444 66 469 66 c 6
 479 66 l 5
 479 0 l 5
 469 0 l 6
 410 0 360 41 360 130 c 6xf2
215 483 m 4
 311 483 390 417 390 273 c 6xf4
 400 204 l 6xf2
 400 61 312 -6 215 -6 c 4
 118 -6 30 61 30 204 c 6
 30 272 l 6
 30 416 118 483 215 483 c 4
225 417 m 4
 163 417 100 371 100 273 c 6
 100 204 l 6
 100 106 163 60 225 60 c 4
 287 60 350 106 350 204 c 6
 350 272 l 6xf8
 350 371 287 417 225 417 c 4
350 477 m 5
 418 477 l 5
 418 100 l 5
 350 100 l 5
 350 477 l 5
EndSplineSet
Fore
SplineSet
350 477 m 1
 418 477 l 1
 418 130 l 2
 418 85 444 66 469 66 c 2
 479 66 l 1
 479 0 l 1
 469 0 l 2
 424 0 384 24 368 76 c 1
 333 20 276 -6 215 -6 c 0
 118 -6 30 61 30 204 c 2
 30 272 l 2
 30 416 118 483 215 483 c 0
 269 483 318 461 350 417 c 1
 350 477 l 1
225 417 m 0
 163 417 100 371 100 273 c 2
 100 204 l 2
 100 106 163 60 225 60 c 0
 287 60 350 106 350 204 c 2
 350 272 l 2
 350 371 287 417 225 417 c 0
EndSplineSet
Validated: 1
Layer: 2
Layer: 3
EndChar
StartChar: beta
Encoding: 680 946 424
Width: 521
VWidth: 0
Flags: W
HStem: -6 70<159.919 336.978> 603 70<176.549 353.083>
VStem: 55 74<434.649 555.74> 392 74<118.035 242.267>
LayerCount: 4
Back
Fore
SplineSet
256 673 m 4
 296 673 389 671 455 584 c 5
 397 541 l 5
 351 602 292 603 256 603 c 4
 184 603 129 562 129 490 c 4
 129 429 190 391 263 377 c 4
 385 354 466 291 466 186 c 4
 466 85 382 -6 256 -6 c 4
 216 -6 119 -4 50 88 c 5
 108 131 l 5
 157 65 221 64 256 64 c 4
 342 64 392 120 392 186 c 4
 392 248 324 295 249 309 c 4
 132 330 55 385 55 490 c 4
 55 605 152 673 256 673 c 4
EndSplineSet
Layer: 2
Layer: 3
EndChar
StartChar: gamma
Encoding: 947 947 421
Width: 556
VWidth: 0
Flags: HW
HStem: 411 66<30 99.424>
VStem: 259 74<-185 0>
LayerCount: 4
Back
Fore
SplineSet
30 477 m 5
 60 477 l 2
 105 477 150 454 170 404 c 2
 296 81 l 1
 452 477 l 1
 526 477 l 1
 333 -0 l 1
 333 -185 l 1
 259 -185 l 1
 259 0 l 1
 104 381 l 2
 95 402 77 411 60 411 c 2
 30 411 l 1
 30 477 l 5
EndSplineSet
Layer: 2
Layer: 3
EndChar
StartChar: delta
Encoding: 682 948 426
Width: 490
VWidth: 0
Flags: W
HStem: 0 70<18 80 154 410> 292 61<20 340> 603 70<204.894 323.692>
VStem: 80 74<70 546.018>
LayerCount: 4
Back
Fore
SplineSet
20 353 m 1
 340 353 l 1
 340 292 l 1
 20 292 l 1
 20 353 l 1
80 447 m 1
 80 611 174 673 265 673 c 0
 290 673 351 673 419 584 c 1
 362 540 l 1
 314 603 285 603 265 603 c 0
 211 603 154 563 154 447 c 1
 154 70 l 1
 410 70 l 1
 410 0 l 1
 18 0 l 1
 18 70 l 1
 80 70 l 1
 80 447 l 1
EndSplineSet
Validated: 5
Layer: 2
Layer: 3
EndChar
StartChar: uni03BC
Encoding: 956 956 418
Width: 555
VWidth: 0
Flags: W
HStem: -6 66<192.057 327.92 461.715 510>
VStem: 70 70<-185 55 115.371 477> 380 70<115.865 477>
LayerCount: 4
Back
Fore
SplineSet
140 55 m 1
 140 -185 l 1
 70 -185 l 1
 70 477 l 1
 140 477 l 1
 140 204 l 2
 140 106 198 60 260 60 c 0
 322 60 380 106 380 204 c 2
 380 477 l 1
 450 477 l 1
 450 124 l 2
 450 79 475 60 500 60 c 2
 510 60 l 1
 510 -6 l 1
 500 -6 l 2
 455 -6 415 18 398 68 c 1
 368 18 318 -6 260 -6 c 0
 213 -6 170 14 140 55 c 1
EndSplineSet
Validated: 1
Layer: 2
Layer: 3
EndChar
StartChar: pi
Encoding: 960 960 422
Width: 555
VWidth: 0
Flags: W
HStem: -6 66<431.654 480> 411 66<40 470>
VStem: 100 70<0 477> 350 70<72.4111 477>
LayerCount: 4
Back
Fore
SplineSet
40 477 m 1
 470 477 l 1
 470 411 l 1
 40 411 l 1
 40 477 l 1
170 477 m 1
 170 0 l 1
 100 0 l 1
 100 477 l 1
 170 477 l 1
420 124 m 6
 420 79 445 60 470 60 c 6
 480 60 l 5
 480 -6 l 5
 470 -6 l 6
 411 -6 350 35 350 124 c 6
 350 477 l 1
 420 477 l 1
 420 124 l 6
EndSplineSet
Validated: 5
Layer: 2
Layer: 3
EndChar
StartChar: endash
Encoding: 349 8211 93
Width: 450
Flags: W
HStem: 218 66<100 350>
VStem: 100 250<218 284>
LayerCount: 4
Back
Fore
SplineSet
100 284 m 5
 350 284 l 5
 350 218 l 5
 100 218 l 5
 100 284 l 5
EndSplineSet
Validated: 1
Layer: 2
Layer: 3
EndChar
StartChar: emdash
Encoding: 8212 8212 94
Width: 490
Flags: W
HStem: 218 66<100 390>
VStem: 100 290<218 284>
LayerCount: 4
Back
Fore
SplineSet
100 284 m 5
 390 284 l 5
 390 218 l 5
 100 218 l 5
 100 284 l 5
EndSplineSet
Validated: 1
Layer: 2
Layer: 3
EndChar
StartChar: quoteleft
Encoding: 8216 8216 87
Width: 214
Flags: W
HStem: 450 217<110 125.516>
VStem: 56 102<458.123 543.949>
LayerCount: 4
Back
Fore
SplineSet
107 450 m 0
 82 450 56 466 56 501 c 0
 56 506 57 524 65 546 c 2
 110 667 l 1
 155 667 l 1
 126 549 l 1
 144 543 158 527 158 501 c 0
 158 466 132 450 107 450 c 0
EndSplineSet
Validated: 1
Layer: 2
Layer: 3
EndChar
StartChar: quoteright
Encoding: 342 8217 86
Width: 214
Flags: W
HStem: 456 217<88.4844 104>
VStem: 56 102<579.194 664.877>
LayerCount: 4
Back
Fore
SplineSet
107 673 m 0
 132 673 158 657 158 622 c 0
 158 616 157 599 149 576 c 2
 104 456 l 1
 59 456 l 1
 88 574 l 1
 70 580 56 596 56 622 c 0
 56 657 82 673 107 673 c 0
EndSplineSet
Validated: 1
Layer: 2
Layer: 3
EndChar
StartChar: quotesinglbase
Encoding: 8218 8218 109
Width: 214
Flags: W
HStem: -121 217<88.4844 104>
VStem: 56 102<2.13565 87.877>
LayerCount: 4
Back
Fore
SplineSet
107 96 m 0
 132 96 158 80 158 45 c 0
 158 39 157 23 149 0 c 2
 104 -121 l 1
 59 -121 l 1
 88 -3 l 1
 70 3 56 19 56 45 c 0
 56 80 82 96 107 96 c 0
EndSplineSet
Validated: 1
Layer: 2
Layer: 3
EndChar
StartChar: quotedblleft
Encoding: 344 8220 88
Width: 374
Flags: W
HStem: 450 217<110 125.516 270 285.516>
VStem: 56 102<458.123 543.949> 216 102<458.123 543.949>
LayerCount: 4
Back
Fore
SplineSet
107 450 m 0
 82 450 56 466 56 501 c 0
 56 506 57 524 65 546 c 2
 110 667 l 1
 155 667 l 1
 126 549 l 1
 144 543 158 527 158 501 c 0
 158 466 132 450 107 450 c 0
267 450 m 0
 242 450 216 466 216 501 c 0
 216 506 217 524 225 546 c 2
 270 667 l 1
 315 667 l 1
 286 549 l 1
 304 543 318 527 318 501 c 0
 318 466 292 450 267 450 c 0
EndSplineSet
Validated: 1
Layer: 2
Layer: 3
EndChar
StartChar: quotedblright
Encoding: 341 8221 85
Width: 374
Flags: W
HStem: 456 217<88.4844 104 248.484 264>
VStem: 56 102<579.194 664.877> 216 102<579.194 664.877>
LayerCount: 4
Back
Fore
SplineSet
267 673 m 0
 292 673 318 657 318 622 c 0
 318 616 317 599 309 576 c 2
 264 456 l 1
 219 456 l 1
 248 574 l 1
 230 580 216 596 216 622 c 0
 216 657 242 673 267 673 c 0
107 673 m 0
 132 673 158 657 158 622 c 0
 158 616 157 599 149 576 c 2
 104 456 l 1
 59 456 l 1
 88 574 l 1
 70 580 56 596 56 622 c 0
 56 657 82 673 107 673 c 0
EndSplineSet
Validated: 1
Layer: 2
Layer: 3
EndChar
StartChar: quotedblbase
Encoding: 8222 8222 108
Width: 374
Flags: W
HStem: -119 217<88.4844 104 248.484 264>
VStem: 56 102<5.29573 89.877> 216 102<5.29573 89.877>
LayerCount: 4
Back
Fore
SplineSet
267 98 m 0
 292 98 318 82 318 47 c 0
 318 41 317 23 309 0 c 2
 264 -119 l 1
 219 -119 l 1
 248 0 l 1
 230 6 216 21 216 47 c 0
 216 82 242 98 267 98 c 0
107 98 m 0
 132 98 158 82 158 47 c 0
 158 41 157 23 149 0 c 2
 104 -119 l 1
 59 -119 l 1
 88 0 l 1
 70 6 56 21 56 47 c 0
 56 82 82 98 107 98 c 0
EndSplineSet
Validated: 1
Layer: 2
Layer: 3
EndChar
StartChar: bullet
Encoding: 8226 8226 101
Width: 246
VWidth: 0
Flags: W
HStem: 184 134<71.3286 174.671>
VStem: 56 134<199.329 302.671>
LayerCount: 4
Back
Fore
SplineSet
123 318 m 0
 163 318 190 291 190 251 c 0
 190 211 163 184 123 184 c 0
 83 184 56 211 56 251 c 0
 56 291 83 318 123 318 c 0
EndSplineSet
Validated: 1
Layer: 2
Layer: 3
EndChar
StartChar: ellipsis
Encoding: 366 8230 110
Width: 554
VWidth: 0
Flags: W
HStem: -6 102<64.2266 149.773 234.227 319.773 404.227 489.773>
VStem: 56 102<2.22656 87.7734> 226 102<2.22656 87.7734> 396 102<2.22656 87.7734>
CounterMasks: 1 70
LayerCount: 4
Back
Fore
SplineSet
107 96 m 0
 137 96 158 75 158 45 c 0
 158 15 137 -6 107 -6 c 0
 77 -6 56 15 56 45 c 0
 56 75 77 96 107 96 c 0
447 96 m 0
 477 96 498 75 498 45 c 0
 498 15 477 -6 447 -6 c 0
 417 -6 396 15 396 45 c 0
 396 75 417 96 447 96 c 0
277 96 m 0
 307 96 328 75 328 45 c 0
 328 15 307 -6 277 -6 c 0
 247 -6 226 15 226 45 c 0
 226 75 247 96 277 96 c 0
EndSplineSet
Validated: 1
Layer: 2
Layer: 3
EndChar
StartChar: perthousand
Encoding: 359 8240 103
Width: 1014
VWidth: 0
Flags: W
HStem: -6 60<482.867 571.133 792.867 881.133> 237 60<482.867 571.133 792.867 881.133> 370 60<132.867 221.133> 613 60<132.867 221.133>
VStem: 56 62<445.242 597.758> 236 62<445.242 597.758> 406 62<69.2419 221.758> 586 62<69.2419 221.758> 716 62<69.2419 221.758> 896 62<69.2419 221.758>
LayerCount: 4
Back
Fore
SplineSet
177 613 m 4
 149 613 118 592 118 545 c 6
 118 498 l 6
 118 451 149 430 177 430 c 4
 205 430 236 451 236 498 c 6
 236 545 l 6
 236 592 205 613 177 613 c 4
177 673 m 4
 237 673 298 632 298 543 c 6
 298 500 l 6
 298 411 237 370 177 370 c 4
 117 370 56 411 56 500 c 6
 56 543 l 6
 56 632 117 673 177 673 c 4
837 237 m 0
 809 237 778 216 778 169 c 2
 778 122 l 2
 778 75 809 54 837 54 c 0
 865 54 896 75 896 122 c 2
 896 169 l 2
 896 216 865 237 837 237 c 0
837 297 m 0
 897 297 958 256 958 167 c 2
 958 124 l 2
 958 35 897 -6 837 -6 c 0
 777 -6 716 35 716 124 c 2
 716 167 l 2
 716 256 777 297 837 297 c 0
527 237 m 0
 499 237 468 216 468 169 c 2
 468 122 l 2
 468 75 499 54 527 54 c 0
 555 54 586 75 586 122 c 2
 586 169 l 2
 586 216 555 237 527 237 c 0
527 297 m 0
 587 297 648 256 648 167 c 2
 648 124 l 2
 648 35 587 -6 527 -6 c 0
 467 -6 406 35 406 124 c 2
 406 167 l 2
 406 256 467 297 527 297 c 0
492 667 m 1
 566 667 l 1
 206 0 l 1
 132 0 l 1
 492 667 l 1
EndSplineSet
Validated: 1
Layer: 2
Layer: 3
EndChar
StartChar: uni2031
Encoding: 8241 8241 437
Width: 1324
VWidth: 0
Flags: W
HStem: -6 60<482.867 571.133 792.867 881.133 1102.87 1191.13> 237 60<482.867 571.133 792.867 881.133 1102.87 1191.13> 370 60<132.867 221.133> 613 60<132.867 221.133>
VStem: 56 62<445.242 597.758> 236 62<445.242 597.758> 406 62<69.2419 221.758> 586 62<69.2419 221.758> 716 62<69.2419 221.758> 896 62<69.2419 221.758> 1026 62<69.2419 221.758> 1206 62<69.2419 221.758>
LayerCount: 4
Back
Fore
SplineSet
1147 237 m 4
 1119 237 1088 216 1088 169 c 6
 1088 122 l 6
 1088 75 1119 54 1147 54 c 4
 1175 54 1206 75 1206 122 c 6
 1206 169 l 6
 1206 216 1175 237 1147 237 c 4
1147 297 m 4
 1207 297 1268 256 1268 167 c 6
 1268 124 l 6
 1268 35 1207 -6 1147 -6 c 4
 1087 -6 1026 35 1026 124 c 6
 1026 167 l 6
 1026 256 1087 297 1147 297 c 4
177 613 m 0
 149 613 118 592 118 545 c 2
 118 498 l 2
 118 451 149 430 177 430 c 0
 205 430 236 451 236 498 c 2
 236 545 l 2
 236 592 205 613 177 613 c 0
177 673 m 0
 237 673 298 632 298 543 c 2
 298 500 l 2
 298 411 237 370 177 370 c 0
 117 370 56 411 56 500 c 2
 56 543 l 2
 56 632 117 673 177 673 c 0
837 237 m 0
 809 237 778 216 778 169 c 2
 778 122 l 2
 778 75 809 54 837 54 c 0
 865 54 896 75 896 122 c 2
 896 169 l 2
 896 216 865 237 837 237 c 0
837 297 m 0
 897 297 958 256 958 167 c 2
 958 124 l 2
 958 35 897 -6 837 -6 c 0
 777 -6 716 35 716 124 c 2
 716 167 l 2
 716 256 777 297 837 297 c 0
527 237 m 0
 499 237 468 216 468 169 c 2
 468 122 l 2
 468 75 499 54 527 54 c 0
 555 54 586 75 586 122 c 2
 586 169 l 2
 586 216 555 237 527 237 c 0
527 297 m 0
 587 297 648 256 648 167 c 2
 648 124 l 2
 648 35 587 -6 527 -6 c 0
 467 -6 406 35 406 124 c 2
 406 167 l 2
 406 256 467 297 527 297 c 0
492 667 m 1
 566 667 l 1
 206 0 l 1
 132 0 l 1
 492 667 l 1
EndSplineSet
Layer: 2
Layer: 3
EndChar
StartChar: minute
Encoding: 8242 8242 438
Width: 416
Flags: W
HStem: 456 211
VStem: 90 236
LayerCount: 4
Back
Fore
SplineSet
244 667 m 1
 326 667 l 1
 161 456 l 1
 90 456 l 1
 244 667 l 1
EndSplineSet
Layer: 2
Layer: 3
EndChar
StartChar: guilsinglleft
Encoding: 8249 8249 188
Width: 363
Flags: HW
VStem: 58 225
LayerCount: 4
Back
Fore
SplineSet
201 437 m 5
 283 437 l 1
 129 250 l 1
 283 63 l 1
 206 63 l 1
 58 237 l 1
 58 263 l 1
 201 437 l 5
EndSplineSet
Layer: 2
Layer: 3
EndChar
StartChar: guilsinglright
Encoding: 8250 8250 189
Width: 385
Flags: W
VStem: 80 225
LayerCount: 4
Back
Fore
SplineSet
234 250 m 1
 80 437 l 1
 162 437 l 1
 305 263 l 1
 305 237 l 1
 157 63 l 1
 80 63 l 1
 234 250 l 1
EndSplineSet
Validated: 1
Layer: 2
Layer: 3
EndChar
StartChar: Euro
Encoding: 8364 8364 396
Width: 591
VWidth: 0
Flags: W
HStem: -6 70<254.775 432.212> 243 56<70 115 189 390> 368 56<70 115 189 430> 603 70<254.775 432.942>
VStem: 115 74<129.695 243 299 368 424 534.141>
LayerCount: 4
Back
Fore
SplineSet
340 673 m 0
 379 673 466 673 534 584 c 1
 477 540 l 1
 429 603 374 603 340 603 c 0
 260 603 189 563 189 446 c 2
 189 424 l 1
 450 424 l 5
 430 368 l 5
 189 368 l 1
 189 299 l 1
 410 299 l 5
 390 243 l 5
 189 243 l 1
 189 222 l 2
 189 104 260 64 340 64 c 0
 375 64 432 64 484 132 c 1
 541 88 l 1
 469 -6 381 -6 340 -6 c 0
 223 -6 115 56 115 222 c 2
 115 243 l 1
 50 243 l 1
 70 299 l 1
 115 299 l 1
 115 368 l 1
 50 368 l 1
 70 424 l 1
 115 424 l 1
 115 446 l 2
 115 611 223 673 340 673 c 0
EndSplineSet
Validated: 1
Layer: 2
Layer: 3
EndChar
StartChar: uni20B9
Encoding: 8377 8377 436
Width: 511
VWidth: 0
Flags: W
HStem: 0 21G<243.016 341> 447 63<110 256 328.205 400> 604 63<111 207.421 282 401>
VStem: 261 69<375.093 447 510 548.994>
LayerCount: 4
Back
SplineSet
111 667 m 5
 431 667 l 5
 401 604 l 5
 81 604 l 5
 111 667 l 5
110 510 m 5
 430 510 l 5
 400 447 l 5
 80 447 l 5
 110 510 l 5
262 462 m 4
 262 558 204 604 130 604 c 4
 130 667 l 4
 236 667 330 602 330 462 c 4
 330 322 236 257 130 257 c 4
 101 257 l 5
 101 322 l 5
 130 322 l 6
 204 322 262 367 262 462 c 4
170 277 m 5
 341 0 l 5
 255 0 l 5
 101 257 l 5
 170 277 l 5
EndSplineSet
Fore
SplineSet
101 257 m 1
 101 322 l 1
 130 322 l 2
 200 322 256 362 261 447 c 1
 80 447 l 1
 110 510 l 1
 256 510 l 1
 240 573 190 604 130 604 c 2
 81 604 l 1
 111 667 l 1
 431 667 l 1
 401 604 l 1
 282 604 l 1
 304 580 319 549 326 510 c 1
 430 510 l 1
 400 447 l 1
 330 447 l 1
 324 339 260 279 179 262 c 1
 341 0 l 1
 255 0 l 1
 101 257 l 1
EndSplineSet
Layer: 2
Layer: 3
EndChar
StartChar: trademark
Encoding: 382 8482 126
Width: 648
VWidth: 0
Flags: W
HStem: 622 45<50 139 186 275>
VStem: 139 47<334 622> 315 46<334 573> 552 46<334 574>
LayerCount: 4
Back
Fore
SplineSet
50 667 m 1
 275 667 l 1
 275 622 l 1
 186 622 l 1
 186 334 l 1
 139 334 l 1
 139 622 l 1
 50 622 l 1
 50 667 l 1
315 667 m 1
 357 667 l 1
 456 473 l 1
 556 667 l 1
 598 667 l 1
 598 334 l 1
 552 334 l 1
 552 574 l 1
 473 416 l 1
 440 416 l 1
 361 573 l 1
 361 334 l 1
 315 334 l 1
 315 667 l 1
EndSplineSet
Validated: 1
Layer: 2
Layer: 3
EndChar
StartChar: infinity
Encoding: 373 8734 117
Width: 690
VWidth: 0
Flags: W
HStem: 86 60<149.586 255.76 441.124 546.275> 364 60<149.586 255.76 441.124 546.275>
VStem: 50 62<185.457 324.543> 578 62<180.658 329.342>
LayerCount: 4
Back
Fore
SplineSet
204 364 m 0
 154 364 112 315 112 255 c 0
 112 195 154 146 204 146 c 0
 254 146 284 195 314 255 c 1
 284 315 254 364 204 364 c 0
204 424 m 0
 273 424 309 378 346 312 c 1
 385 378 427 424 496 424 c 0
 584 424 640 349 640 255 c 0
 640 161 584 86 496 86 c 0
 427 86 385 132 346 198 c 1
 309 132 273 86 204 86 c 0
 116 86 50 161 50 255 c 0
 50 349 116 424 204 424 c 0
496 364 m 0
 446 364 410 315 376 255 c 1
 410 195 446 146 496 146 c 0
 546 146 578 195 578 255 c 0
 578 315 546 364 496 364 c 0
EndSplineSet
Validated: 1
Layer: 2
Layer: 3
EndChar
StartChar: integral
Encoding: 8747 8747 125
Width: 370
VWidth: 0
Flags: W
HStem: -185 57<45 139.603> 600 57<230.397 325>
VStem: 155 60<-115.497 587.756>
LayerCount: 4
Back
Fore
SplineSet
215 -54 m 2
 215 -144 164 -185 105 -185 c 2
 45 -185 l 1
 45 -128 l 1
 105 -128 l 2
 130 -128 155 -103 155 -54 c 2
 155 527 l 2
 155 616 206 657 265 657 c 2
 325 657 l 1
 325 600 l 1
 265 600 l 2
 240 600 215 575 215 527 c 2
 215 -54 l 2
EndSplineSet
Validated: 1
Layer: 2
Layer: 3
EndChar
StartChar: notequal
Encoding: 8800 8800 120
Width: 520
Flags: W
HStem: -12 21G<109 180.167> 156 56<80 186 273 440> 290 56<80 247 334 440>
LayerCount: 4
Back
SplineSet
80 346 m 1
 440 346 l 1
 440 290 l 1
 80 290 l 1
 80 346 l 1
80 212 m 1
 440 212 l 1
 440 156 l 1
 80 156 l 1
 80 212 l 1
349 514.5 m 5
 411 514.5 l 5
 171 -12.5 l 5
 109 -12.5 l 5
 349 514.5 l 5
EndSplineSet
Fore
SplineSet
349 514 m 1
 411 514 l 1
 334 346 l 1
 440 346 l 1
 440 290 l 1
 309 290 l 1
 273 212 l 1
 440 212 l 1
 440 156 l 1
 248 156 l 1
 171 -12 l 1
 109 -12 l 1
 186 156 l 1
 80 156 l 1
 80 212 l 1
 211 212 l 1
 247 290 l 1
 80 290 l 1
 80 346 l 1
 272 346 l 1
 349 514 l 1
EndSplineSet
Layer: 2
Layer: 3
EndChar
StartChar: lessequal
Encoding: 374 8804 118
Width: 480
Flags: W
HStem: 95 56<80 400>
VStem: 80 320<290 346>
LayerCount: 4
Back
Fore
SplineSet
80 151 m 1
 400 151 l 1
 400 95 l 1
 80 95 l 1
 80 151 l 1
146 323 m 1
 400 246 l 1
 400 190 l 1
 80 290 l 1
 80 356 l 1
 400 456 l 1
 400 400 l 1
 146 323 l 1
EndSplineSet
Validated: 1
Layer: 2
Layer: 3
EndChar
StartChar: greaterequal
Encoding: 375 8805 119
Width: 480
Flags: W
HStem: 95 56<80 400>
VStem: 80 320<151 207>
LayerCount: 4
Back
Fore
SplineSet
400 151 m 1
 400 95 l 1
 80 95 l 1
 80 151 l 1
 400 151 l 1
334 323 m 1
 80 400 l 1
 80 456 l 1
 400 356 l 1
 400 290 l 1
 80 190 l 1
 80 246 l 1
 334 323 l 1
EndSplineSet
Validated: 1
Layer: 2
Layer: 3
EndChar
